/* XPM */
static char *result[] = {
/* columns rows colors chars-per-pixel */
"64 64 202 2 ",
"   c #040005",
".  c #0A0201",
"X  c #020109",
"o  c #0A050B",
"O  c #0C080D",
"+  c #130806",
"@  c #040712",
"#  c #0B0B13",
"$  c #070B17",
"%  c #150F12",
"&  c #170F13",
"*  c #121217",
"=  c #13141C",
"-  c #1C1518",
";  c #0A111E",
":  c #221816",
">  c #331409",
",  c #34231C",
"<  c #1A1C21",
"1  c #0E1A35",
"2  c #0C172D",
"3  c #0F223C",
"4  c #10233E",
"5  c #212121",
"6  c #2A2A2A",
"7  c #25242B",
"8  c #2E2E32",
"9  c #2A2934",
"0  c #313132",
"q  c #34333B",
"w  c #39393C",
"e  c #38383E",
"r  c #2F3032",
"t  c #231D22",
"y  c #421F07",
"u  c #481715",
"i  c #482307",
"p  c #572E06",
"a  c #42271E",
"s  c #623407",
"d  c #492B21",
"f  c #573426",
"g  c #00660F",
"h  c #006D04",
"j  c #007305",
"k  c #007B0C",
"l  c #007709",
"z  c #006D10",
"x  c #006D1F",
"c  c #086E12",
"v  c #11631D",
"b  c #007611",
"n  c #007D14",
"m  c #00731B",
"M  c #007918",
"N  c #0A7D1B",
"B  c #137918",
"V  c #005D27",
"C  c #115B30",
"Z  c #006423",
"A  c #006821",
"S  c #117920",
"D  c #117322",
"F  c #102541",
"G  c #122846",
"H  c #132B4B",
"J  c #183158",
"K  c #373441",
"L  c #393645",
"P  c #3C3B44",
"I  c #3D3B4A",
"U  c #1D3869",
"Y  c #1B3663",
"T  c #403F46",
"R  c #413D4E",
"E  c #423E50",
"W  c #3E414A",
"Q  c #42444C",
"!  c #47494F",
"~  c #434549",
"^  c #454154",
"/  c #484554",
"(  c #494659",
")  c #4B4C5C",
"_  c #484B56",
"`  c #514E5D",
"'  c #4E525C",
"]  c #52545B",
"[  c #4F755D",
"{  c #4D4D60",
"}  c #4F5263",
"|  c #545464",
" . c #595666",
".. c #565965",
"X. c #565669",
"o. c #555A6B",
"O. c #595C6C",
"+. c #595966",
"@. c #5A5F70",
"#. c #524F61",
"$. c #5B616E",
"%. c #5A6172",
"&. c #5E6678",
"*. c #537963",
"=. c #6F6F6F",
"-. c #616574",
";. c #636975",
":. c #606779",
">. c #656C7C",
",. c #6B6C7B",
"<. c #696676",
"1. c #6C727C",
"2. c #747373",
"3. c #7C7C7C",
"4. c #96593C",
"5. c #A15F40",
"6. c #A76342",
"7. c #B66C47",
"8. c #B7784E",
"9. c #C4764D",
"0. c #CB7C50",
"q. c #008213",
"w. c #0D8B17",
"e. c #128D19",
"r. c #14901A",
"t. c #1F981D",
"y. c #19941C",
"u. c #29911F",
"i. c #299F21",
"p. c #249825",
"a. c #2A8628",
"s. c #3DAD27",
"d. c #3AA32B",
"f. c #3DA731",
"g. c #48B52B",
"h. c #51AF33",
"j. c #63B33B",
"k. c #66CA35",
"l. c #348740",
"z. c #52865A",
"x. c #568A5E",
"c. c #588A5B",
"v. c #4F8356",
"b. c #5B8D62",
"n. c #5D8663",
"m. c #5E9265",
"M. c #689766",
"N. c #7BA368",
"B. c #5F9A4C",
"V. c #78CB4E",
"C. c #7DD349",
"Z. c #83A96E",
"A. c #85AD72",
"S. c #8CAD77",
"D. c #88B075",
"F. c #A1B67F",
"G. c #CB8656",
"H. c #D4905C",
"J. c #DE955F",
"K. c #D38758",
"L. c #E59A62",
"P. c #D1A26F",
"I. c #EEA367",
"U. c #ECA368",
"Y. c #E1965F",
"T. c #8ADD4C",
"R. c #82C851",
"E. c #AED96C",
"W. c #A6E962",
"Q. c #B8F46B",
"!. c #9DDE5E",
"~. c #CAFE76",
"^. c #274B89",
"/. c #2B5396",
"(. c #6C7382",
"). c #6E7688",
"_. c #737B8B",
"`. c #797F8E",
"'. c #727784",
"]. c #676F80",
"[. c #807F86",
"{. c #7A818E",
"}. c #7C8494",
"|. c #848484",
" X c #8D8D8D",
".X c #868589",
"XX c #808694",
"oX c #838A95",
"OX c #848B99",
"+X c #8D8F94",
"@X c #8E949F",
"#X c #919191",
"$X c #999999",
"%X c #A4B982",
"&X c #8992A2",
"*X c #8F98A5",
"=X c #9097A1",
"-X c #939AA7",
";X c #A8A8A8",
":X c #F5BF82",
">X c #ABC089",
",X c #FCC182",
/* pixels */
"q.q.q.q.q.q.q.q.q.q.q.q.q.q.q.q.q.q.q.q.q.q.q.q.q.q.q.q.q.q.q.q.q.q.q.q.q.q.q.q.q.q.q.q.q.q.q.q.q.q.q.q.q.q.q.q.q.q.q.q.q.q.q.q.",
"q.q.q.q.q.q.q.q.q.q.q.q.k j j j j j q.q.q.q.q.q.q.q.q.q.q.x x q.q.q.q.q.q.q.q.n A A n q.q.q.q.q.q.q.q.q.q.q.q.q.q.q.q.q.q.q.q.q.",
"q.q.q.q.q.q.q.q.q.g.w.q.k k l k k k q.q.q.q.q.q.q.q.q.q.q.x Z x q.q.q.q.q.q.q.n m m n q.q.q.q.q.n x q.q.q.q.q.q.m x x x n q.q.q.",
"q.q.q.n M q.q.q.q.k.e.n q.q.q.q.q.q.q.q.q.q.q.f.f.f.f.q.q.x x x q.q.r.t.t.t.t.t.t.q.q.q.q.q.q.m x V q.q.q.q.q.q.x A A A n q.q.q.",
"q.q.q.M V q.N q.q.k.r.q.q.q.q.q.q.q.q.q.q.q.q.~.~.~.~.q.q.q.q.q.q.q.g.k.k.k.k.k.k.q.q.q.q.q.q.A V V q.q.q.q.q.q.q.q.q.q.q.q.q.q.",
"q.q.A A q.l.n.n.N.N.c.z.v.v.[ [ [ v.v.c.M.Z.F.F.Z.N.N.c.z.z.z.z.z.v.v.c.N.%XS.N.N.N.c.c.z.c.*.z.z.c.x.c.x.x.b.Z.Z.M.j.q.q.q.q.q.",
"q.q.M M q.m.#X[.|..X|..X|. X X X X X X X X X X X.X X X X X X X X X.X X X X X X X X X X X X X X X X X X X X X X X;X|.j.s.s.y.q.q.",
"q.q.q.q.q.x.M.@X*X$X=X=X=X=X@X@X] 0 0 0 w .XXX{.{..X{.XX{.XXXX{.XX{.}.{..X{.XXXXXX{.{.{.~ 0 0 1.OXOXOXOXOX@X{.T |. Xj.k.k.i.q.q.",
"q.q.q.q.n n.Z.@X-X*X-X*X*XOX}.oX$.~ 6 ~ ] XX}.{.XX{.}.'.'.(.'.'.{.XX{.XX{.}.'.'.(.'.(.'._ w 6 ,.}.&X}.}.).).].L |. Xj.k.k.p.q.q.",
"q.q.q.q.n *.[.@X*X&X&X&X&X_.(.(.(.$.6 +.{.{.{.{.{.{.{.%.$.$.%.;.{.{.{.{.{.{.$.$.$.$.$.$.$.! 6 >.}.}.}._.%.@.@.L [. Xj.~.~.T.g.q.",
"q.q.q.q.q.b.|.@X*X&X&X}._.(.(.(.1.-.0 +.{.{.1.;.;.;.;.+...+.$.%.-.-.;.;.;.;.$.$.$.%.$.$.] T r >.}.].&.&.%.%.o.L [. XE.~.~.~.R.q.",
"q.q.q.q.q.m.|.@X@X}.}.'.>.,.(.].2.] 0 +.{.'.>.$.$.$.$.+. . .+.+.+.$.$.$.O.O.+.$.$.$.$.$._ W 0 ,.).@.%.%.%.@.@.L [. Xh.h.Q.V.f.q.",
"q.q.M n q.M.|.@X}.(.<.<.<.,.(.(.$.` 0 -.{.%.$.$.$.$.$.%.+.+. . .] $.%. . .]  .+.$.$.$.$.) P r >.).%.%.@.@.%.@.L [. XS q.V.d.q.q.",
"q.q.A A n A.|.@XXX<.<.<.,.(.>.O.+.` 0 +._.$.$.%.$.$.$.$.$.O.+.$.$.$.$.O.+.+.$.%.$.%...) _ P 0 >._.@.%.%.X.X.| L [.+XS q.n q.q.q.",
"q.q.A A N A.[.@XXX<.<.<.<.,.-. . .] 0 $.{.$.$.$.$.$.$.O.......o.......$.+.+.O.+.....} / / T r -.].@.%.o.X. .| L [. XS q.q.q.q.q.",
"q.A Z A m n.Z.&XXX(.O. .X. . . .] ] 0 $._.$.$.$.%.$.$._ ^ / ( ( / / / %.-.$.$.` / / / / / P r ' @.@.X.X.%.%.o.L [. XS q.q.q.q.q.",
"q.A Z m q.m.|.&X`.$.+. . . . . . .#.6 ` ;.$.$.$.$.o.' ^ / / ^ ^ ( ^ ( ) ' ) ) ( / / ^ / / P 6 ' %.%.%.o.%.} { L `.+XB q.q.q.q.q.",
"q.Z m q.q.m.|.@X_. .+. . . . . . .` 6 ~ | +.O.O.+.W q q q q q q q q q q q K q q q ^ / / / P 6 ! o.o.o.o.@.} I I `. XD q.q.q.q.q.",
"q.q.q.q.q.m.|.@X_.+...o. . . . . .` 6 7 6 ! / / ^ # X X X X X X X X X X X X X X X Q / / / P 6 6 K I I ( W W W W [. XD q.j h l q.",
"q.q.q.q.q.m.|.] ! P P W T T T T T e 6 6 6 q q 9 9 1 1 1 1 1 1 1 1 1 1 1 1 1 1 1 1 q q / e 8 6 6 9 K K L q r q 6 3. Xh.n q.j h j ",
"q.q.q.q.q.m.|.0 8 r e e e e K K q q r r 0 6 6 o X ^././././././././././././././.^.@ X I 0 6 6 0 8 r K K r 8 7 5 2. Xj.s.w.k k k ",
"q.q.p.d.t.M.|.r } }.}.}.}.}.}.}.}.}.}.}._.5 = ; ; ^./.U U U U Y U U U U Y Y U /./.2 ; < = 6 6 >.}.}.}.}.}.W 6 5 2. Xj.k.r.q.q.q.",
"q.q.C.W.k.m.|...).}.}.}.}.}.}.}.}.}.(.(.>.# X F H ^./.$ X X X X X X X X X X @ ^./.J G X @ ' } ).}.}.).].{.} W 5 2. Xj.k.r.q.q.q.",
"q.W.T.k.k.m.|.oX}.}.}.}.}.}.}.}.}.{.%.%.%.= X F H Y Y < * * * * * * * * * % 2 J Y H G X $ _.}.}.}.}.].%.%.%.o.< 2. Xj.k.r.q.q.q.",
"q.W.Q.!.k.m.|.oX_.%.o.O.%._.}.}.].%.} @.@.$ X F H @ X 6 q 0 0 q 0 0 0 q 0 0 0 X @ G G @ @ _.}.].@.X.@.%.@.@.o.5 2. Xj.k.B k q.q.",
"q.W.W.T.k.m.|.oX'.%.O.o.%.].).).%.o.X.X.X.# X F H @ X < 5 5 5 5 5 5 5 5 5 5 5 X X G G X # ].).&.@.o.o.@.%.o.} 5 2. Xa.u.c b q.q.",
"q.W.T.k.k.m.|.oX).@.%.%.@.@.@.| } X.%.{ ^ # X F H @ X X X   X X X X X X X X X X @ G G @ @ X.@.%.@.@.@.%.%.{ I 5 2. Xv g g b q.q.",
"q.g.k.k.k.D.|.oX>.( ( } @.@.X.( E ( { W ^ 7 = 2 1 o X , a o X a d d d o X a d X X 2 2 7 9 | @.%.X.( ( ( ( ^ ^ 5 2. Xv g g b q.q.",
"q.r.g.k.k.D.|.oX>.E ^ ) | X.| E E ( ( E E { L o X X X 6.7.& o 6.9.9.7.% O 7.7.O X X @ #.#.} X.o.} I { I ^ ^ E : 2. XD n n q.q.q.",
"q.q.y.s.k.D.|.oX,.^ ^ ^ ^ ^ ^ ^ E E E E E E e o X a f 9.K.:   8.K.K.G.& O 9.G.f d o @ o.( ^ ^ E W ( E ( ^ ^ E 5 2.#XB q.x M q.q.",
"q.q.q.t.k.D.|.oX<.^ ^ ^ ^ ^ ^ E { E E E E 8 8 # X 4.7.Y.L., : H.I.I.L., : H.L.7.5.& ; E ( E ( E ^ ( ( I E E R 5 2. XS m Z m q.q.",
"q.q.q.t.k.D.|.'.O.R R R I R I R I E E E E 7 6 7 6 O o 6.9.J.L.I.I.I.I.L.L.9.9.& # L I I E E E I I I E I R R I 5 2. XB V V m q.q.",
"q.j k q.M S.Z.w 0 0 6 6 6 6 6 6 6 0 0 6 6 6 6 6 7 @ @ 4.6.K.H.H.K.H.H.H.H.7.5.# @ 5 6 6 6 0 r 6 6 6 6 6 6 6 6 : 2. XS V M q.q.q.",
"q.j h l n S.[.1.1.,.2.] 6 6 W '.'.'.'.'.'.1.1.= X 4 H # O O O O + + O o o o O F F @ # $.;.&.&.&.$.&.;.$.-.;.;.q `. XS M q.q.q.q.",
"q.k k k n D.|.OXOXoXXX$.6 5 ! &X&X}.{.{.{.{.{.= X 3 4 X X X X X X X X X X X X 4 4 X @ &.>._._._.).{.{.{.`.}.}.L |. XB q.q.q.q.q.",
"q.q.q.q.q.D.|.OX{.&.;.] 6 1.&X&X@X7 . o +   +   . X X X X X   . . . . . . .   X X X   o # ..o.o.o...'.{.-.-.%.L [. XS q.q.q.n q.",
"q.q.q.q.n D.|.oX_.&...~ 6 1.&X&X}.-   + + + + + . - : : > & & . . + + + + + +   X - :   @ ^ ) | } } O.-.<.-.%.L |. XS q.q.j j q.",
"q.q.q.k g S.|.OX{.$.` P 6 (.&X&X_.-   p s s s + X P.:XU.Y.9.7.& X i i s s i i   O H.H.O X X X | ) ' ` | -.:.@.L {. XS k.r.j l q.",
"q.q.q.n b N.|.oX,.` ) T 6 O.(.(.1.6 % i p p p + o P.,XU.Y.9.9.&   > > p p i > . O G.8.& o X X R ^ R ) ` R E E L [. XB k.r.q.k q.",
"q.M q.q.q.n.|.oX,.) P 0 6 ] -.%.-.$.] - . . . X X G.U.0.9.9.9.& . . . . . . . X X o O y i X X Q R R E ^ E E E L [. Xa.k.r.q.q.q.",
"q.A m n q.n.|.oX].) 9 6 6 _ .. . . . .: * & & * * 8.G.6.5.5.5.: O .   + o . . X X X X > > o X W I W W W I W W W [. Xj.k.y.q.q.q.",
"q.Z m q.q.m.|.e q 9 6 6 6 6 0 q q q w q q 0 0 0 q # X X o X O G G X X > > X X X X X X   X @ X 0 0 r 9 6 9 6 9 5 2. XE.k.k.i.q.q.",
"q.A m q.q.m.8.H I } { ]...} ....] +...............' ) # X > > u u o X X # @.].o._ 6 5 5 5 r W _ ) _ _ _ _ w 7 5 2. XE.k.k.i.q.q.",
"q.m n q.q.D.{.9 o.}._.}.}.}.}.}.XX}.}.}.}.}.}.oX}.}.}.# X u u u u o X X $ ).`.`.}.w 6 6 6 W >.>.>.>.>.>.>.W 6 5 2. XR.k.k.i.q.q.",
"q.q.e.t.f.>XM._.}.}.}.`.}.}.}.}.}.}.}.}.}.&.:.:.:.:.:.0 e = o o O @.].].(.`.].&.:...W 6 ' $.>.>.&...%.&.} W W 5 2. Xj.k.h.t.q.q.",
"q.q.s.T.~.>X[.[.}.}._._.).)._.`.}.`.).).(.o.O.O.o.@.@.q ~ = X X o (.}.}.).).@.@.%.X.W 6 $.>.>.&.o.) o.$.} ) } 5 2.#Xj.k.y.q.q.q.",
"q.q.V.~.~.Z.[.XX}.}.].].].].].`.}._.@.@.@.| | | |  .$.w / >.].%.{ ).}.}.&. .@.@.%.( L r $.>.>.} { { ) ) ) ) _ 5 2.#XS q.q.q.q.q.",
"q.q.V.Q.R.Z.[.XX`._.o.@.{ { o.@.@.].@.O. .| X.@.( ( ) q ! }.}._.@.%.&.@. .#.X.O.%.^ P 0 $.$...' ) _ _ _ ) ^ L 5 2. XD q.q.m m q.",
"q.q.V.W.k.N.M.OX[._.].X.#. .X.X.X.X.@.o.X.X.o.X.E ( E K ! }.).).O.X.| X.X.X. .X...( e 0 $.%.) { ) W { _ ) I K 5 2.#XS q.q.x A q.",
"q.q.V.Q.k.A.[.OX_.@.@.@.#.#.#.#.@.@.@.%.@.@.} E ( E E 8 _ }.&.%.| | | @.@.%.@.{ ^ ^ e r $.o.( _ _ { _ ) } W K < 2.#XS q.q.A A q.",
"q.q.s.k.k.A.{.}.). . .X.@.#.( ( { { @.X.{ { { ( ^ ^ E q ! }.&.@.O.{ { @.X.) ) ( ^ ^ e 0 $.$.{ W W W _ ( W L K 5 2.#XN q.q.A A q.",
"q.q.s.k.k.A.{.}.). . .X.X.( ( E E ( o.) ( I I E ^ ^ E q ! _.&.@.o.( E X.{ E ^ ^ ^ ^ L r ..o.) I I I W W L L K 5 2. XR.j.r.n q.q.",
"q.q.y.s.k.Z._.}.).@.@.X.E E ( E ^ ^ ^ ^ ^ ^ ^ ^ ^ ^ ^ 6 P %.@.o.E ( E E ^ ^ ^ ^ ^ ^ K 6 W _ L L L L L L L L K 5 2. XR.k.r.q.q.q.",
"q.q.q.r.g.Z.8.` { { { ) E ( E ( ^ ^ ^ ^ ^ ^ ^ ^ E R q 6 r P ) ) E E E ( ^ ^ ^ ^ ^ q 8 6 I I L L L L L L L q r 5 2.+Xj.g.w.q.q.q.",
"q.q.q.q.q.D.Z.8 q I R R E E E E ^ Q I ^ R R R ^ E K 6 6 6 6 L W E I E E R R Q R I 6 6 7 K K K K L L L L K 8 6 5 2.#Xj.q.q.q.q.q.",
"q.q.q.q.q.D.[.9 7 5 5 t < t t t 5 5 < 5 : 5 5 < t 5 < 5 5 5 5 5 < t t 7 5 5 < 5 5 5 5 5 : 5 5 5 < < < < 5 5 5 - 2. XS q.q.q.q.q.",
"q.q.q.q.q.m.;X3.2.=.=.=.=.=.=.=.2.=.=.=.=.=.=.=.=.=.=.=.=.=.=.=.2.=.=.=.=.=.=.=.=.=.=.=.=.=.=.=.=.=.=.=.=.=.=.=.$X#XS q.q.q.q.q.",
"q.q.q.q.q.v.$X$X$X#X$X#X#X#X#X#X#X#X#X#X#X#X#X#X#X#X#X#X#X#X#X#X#X#X X+X#X#X#X#X#X#X#X#X#X#X#X#X X#X#X X#X#X#X#X X3.S q.q.q.q.q.",
"q.q.q.q.q.N S S N S v v v v v D B S S S S S S S S S B D h.j.j.j.j.j.j.h.S D B D C S S B D S S S v v v h.j.j.j.j.a.B n q.q.q.q.q.",
"q.q.q.q.q.q.q.q.n q.q.q.q.q.q.q.m V q.A m q.q.q.q.q.q.q.q.d.k.k.g h.k.k.k.q.q.m V q.q.q.q.q.q.z g c g g d.k.k.q.q.q.q.q.Z V A q.",
"q.q.m A Z q.x A q.q.j k q.q.q.q.q.n A m n q.q.j j k q.q.q.w.r.r.g B B B B z b m V q.q.q.k j j k b b c g d.k.k.q.q.q.q.Z Z x q.q.",
"q.q.M x Z A Z A q.q.j j k q.q.q.q.q.m n q.q.q.k k n q.q.q.q.q.q.k g g g g n n M V q.q.q.k h k n q.q.b b e.p.u.q.q.q.q.m x n q.q.",
"q.q.q.n A A A m q.q.l j k q.q.q.q.q.q.q.q.q.q.q.q.q.q.q.q.q.q.q.q.b z z z q.q.n x q.q.q.k l q.q.q.q.q.q.M b q.q.q.q.q.q.q.q.q.q.",
"q.q.q.n q.q.q.q.q.q.q.q.q.q.q.q.q.q.q.q.q.q.q.q.q.q.q.q.q.q.q.q.q.q.q.q.q.q.q.q.q.q.q.q.q.q.q.q.q.q.q.q.q.q.q.q.q.q.q.q.q.q.q.q."
};
