/* XPM */
static char *result[] = {
/* columns rows colors chars-per-pixel */
"64 64 205 2 ",
"   c #333D3E",
".  c #383D3F",
"X  c #006E00",
"o  c #00660F",
"O  c #00690F",
"+  c #007305",
"@  c #007709",
"#  c #007B0D",
"$  c #006D10",
"%  c #006D1F",
"&  c #086E12",
"*  c #007511",
"=  c #007C14",
"-  c #00741B",
";  c #0A751C",
":  c #017918",
">  c #0C7715",
",  c #147A17",
"<  c #127816",
"1  c #247C01",
"2  c #277907",
"3  c #2C6E13",
"4  c #005D27",
"5  c #0A5F27",
"6  c #1B5C2B",
"7  c #1A552C",
"8  c #25582A",
"9  c #33572A",
"0  c #294837",
"q  c #294937",
"w  c #225231",
"e  c #2D5C34",
"r  c #384E3A",
"t  c #006423",
"y  c #006821",
"u  c #156525",
"i  c #116B21",
"p  c #336627",
"a  c #3B6637",
"s  c #3C7232",
"d  c #4C713F",
"f  c #393345",
"g  c #343A40",
"h  c #3A3B45",
"j  c #3D3649",
"k  c #3C3A46",
"l  c #40394E",
"z  c #443D52",
"x  c #394241",
"c  c #444249",
"v  c #444C49",
"b  c #49574C",
"n  c #4B4459",
"m  c #514B5E",
"M  c #557B4E",
"N  c #517350",
"B  c #687F50",
"V  c #564C68",
"C  c #5B5568",
"Z  c #5E5371",
"A  c #665B78",
"S  c #65636D",
"D  c #6D6A78",
"F  c #76767C",
"G  c #008213",
"H  c #0A8A17",
"J  c #0C8918",
"K  c #1C841A",
"L  c #128F19",
"P  c #13831C",
"I  c #14901A",
"U  c #1A941C",
"Y  c #1F981D",
"T  c #298806",
"R  c #2C9106",
"E  c #298E1E",
"W  c #2A8B17",
"Q  c #2A931F",
"!  c #249B1F",
"~  c #329B14",
"^  c #319B0C",
"/  c #35A915",
"(  c #3BBB1E",
")  c #35B618",
"_  c #2FA80F",
"`  c #1C9321",
"'  c #299E22",
"]  c #279623",
"[  c #329A22",
"{  c #3B8331",
"}  c #328F29",
"|  c #2CA122",
" . c #3DA226",
".. c #3DAD27",
"X. c #35A429",
"o. c #3FBE24",
"O. c #3DA731",
"+. c #57993B",
"@. c #488436",
"#. c #47AD2A",
"$. c #49A725",
"%. c #46B42B",
"&. c #4EB92D",
"*. c #47B729",
"=. c #52BC2E",
"-. c #52B62D",
";. c #44AC33",
":. c #4CB432",
">. c #56BE31",
",. c #51B43B",
"<. c #57B836",
"1. c #59AB39",
"2. c #61B837",
"3. c #3EC225",
"4. c #45C32B",
"5. c #4DCB34",
"6. c #5AC131",
"7. c #54CD3B",
"8. c #63C535",
"9. c #66CA35",
"0. c #6ECC3B",
"q. c #75D13E",
"w. c #72CF3E",
"e. c #6A9554",
"r. c #59A947",
"t. c #61BE43",
"y. c #66B355",
"u. c #65A655",
"i. c #75A768",
"p. c #5B8E51",
"a. c #5CC644",
"s. c #5CD545",
"d. c #68C646",
"f. c #79CC4E",
"g. c #72CA49",
"h. c #62D54B",
"j. c #62DA4C",
"k. c #7AD443",
"l. c #7ED24C",
"z. c #6CD754",
"x. c #67DA51",
"c. c #6FDE59",
"v. c #6ADB53",
"b. c #71DE5B",
"n. c #75D75C",
"m. c #73CC55",
"M. c #74E05D",
"N. c #79CF65",
"B. c #7BE164",
"V. c #7CE265",
"C. c #869E5F",
"Z. c #99B965",
"A. c #84DA49",
"S. c #8EDF4F",
"D. c #82D848",
"F. c #87D555",
"G. c #90DD55",
"H. c #9CE45B",
"J. c #95E254",
"K. c #A5EA5E",
"L. c #82E36B",
"P. c #8AE573",
"I. c #92E77B",
"U. c #A2E562",
"Y. c #ACEE63",
"T. c #B2EF6A",
"R. c #B6F469",
"E. c #BAF66C",
"W. c #B9F66B",
"Q. c #9CDC6D",
"!. c #CAFE76",
"~. c #C5F674",
"^. c #736A84",
"/. c #7B7786",
"(. c #6F6481",
"). c #817D8D",
"_. c #847F92",
"`. c #7E8084",
"'. c #8A8697",
"]. c #918E9D",
"[. c #92919D",
"{. c #89948C",
"}. c #9796A1",
"|. c #9A9BA4",
" X c #9897A2",
".X c #9CA1A2",
"XX c #A6AAAD",
"oX c #A5A8AA",
"OX c #ABB1AF",
"+X c #ABAEB1",
"@X c #ADB2B1",
"#X c #B0B6B4",
"$X c #B3B9B6",
"%X c #B5BBB9",
"&X c #B9BEBD",
"*X c #B5B7BB",
"=X c #9BEA85",
"-X c #ACEE99",
";X c #BBC3BC",
":X c #B8F1A6",
">X c #BEC5C0",
",X c #C4CCC5",
"<X c #C4C9C7",
"1X c #CED4CF",
"2X c #DBE0DA",
/* pixels */
"G G G G G G G G G G G G G G G G G G G G G G G G G G G G G G G G G G G G G G G G G G G G G G G G G G G G G G G G G G G G G G G G ",
"G G G G G G G G G G G G # + + + + + G G G G G G G G G G G - y G G G G G G G G = t t = G G G G G G G G G G G G G G G G G G G G G ",
"G G G G G G G G G ..H G G # # # # # G G G G G G G G G G G % t % G G G G G G G = - - G G G G G G = % G G G G G G - y - y G G G G ",
"G G G = - G G G G 9.I G G G G G G G G G G G G O.O.O.O.G G - t y G G I Y Y Y Y Y Y G G G G G G : % 4 G G G G G G y y y y : G G G ",
"G G G : 4 G G G G 9.I G G G G G G G G G G G G !.!.!.!.G G G G G G G ..9.9.9.9.9.9.G G G G G G t 4 4 G G G G G G G G G G G G G G ",
"G G % y G G G Y 9.9.I G G G 4 4 t G G G ..A.!.!.q.9.9.G G G G G G G G ! 9.!.G.9.9.9.U G G G 4 * G G G G G G G 9.9.9.9.G G G G G ",
"G G : : G G G X.K.9.I G : % 4 % = G G | =.q.G.G.#.' ' G G G = y G G G H ' !.R.S.9.9.I G G G - = G G G G ! ....9.9.9.9.....U G G ",
"G G G G G G G O.!.9.I = : % % = G G ! 6.9.9.9.9.L G G G G = - 4 G G G G G Y.E.Y.9.9.| H G G G G G G G U *.9.9.9.9.9.9.9.9.| G G ",
"G G G G G G G #.!.9.I G G G G G G G 9.9.9.9.9.9.I G G G G y 4 4 G G G G G 9.U.Y.9.9.9.| G G G G G G G =.9.9.9.9.9.9.9.9.9.| G G ",
"G G G G G G ..A.!.9.I G G G G G G G 9.9.9.*.G G G G G G y 4 y G G G G G G G ..9.9.9.9.| G G G G G G G =.9.9.9.9.9.9.9.!.!.S.*.G ",
"G G G G G G d.E.!.9.=.=...G G G G G 9.9.9.%.G G G G G y t y G ; u q q q 0 0 e } 8.9.9.6...G G G G G >.8.9.9.9.9.9.J.R.!.!.~.l.G ",
"G G G G G G f.W.S.9.9.9.%.G G G G G 9.9.9.*.G G G G G - - : : g j x v v v v f f +.<.9.9.%.G G G G G 9.9.9.9.9.9.X.#.,.,.R.f.O.G ",
"G G = : G Y g.J.9.9.9.9.%.G G G G G 9.9.9.6.` ` H G G G G i 0 f e.r.$.4.4.5.y.e.f j N 9.%.G G G H Y 9.9.9.6.*.%.J G G G g.O.G G ",
"G G y y G 9.9.9.9.9.9.9.%.G G G G G 9.9.9.9.9.9.I G G G = 0 l e.,./ _ ) ( ( 5.>.u.b h +.%.G G G Y 9.9.9.9.*.G G G G G G = G G G ",
"G G % y G 9.9.9.9.9.9.9.%.G G G G G 9.9.9.9.9.!.] G G G - g p.( ) ( 5.v.c.M.M.h.) y.c f { G G =.9.9.9.9.' G G G G G G G G G G G ",
"G y t y G I %.9.9.9.9.9.%.G G G G G 9.9.9.k.E.!.' G G G g N r.( 7.c.c.c.n.7.*.7.s.4.a.b   w G =.9.9.8.' H G G G G G G G G G G G ",
"G t t - G G ..9.9.9.9.9.=.Y G G G G 9.9.9.q.Y.G.` G G G h M 7.3.j.c.b.M.m.^ T ~ j.a.o.y.b   = =.9.9.9.I G G G G G G G G G G G G ",
"G t - G G G ..9.9.9.9.9.9.9.G G G G 9.9.9.9.9.G G G G G   p.j.j.c.h.x.B.m.T 1 1 | h.x.M.N f i =.9.9.9.I G G G G G G G G G G G G ",
"G G G G G G ..9.9.9.9.9.9.9.G G G G 9.9.9.9.9.G G G G G g N s.j.7.( ) c.L.a 2 1 1 a.b.b.Z.f +.8.9.9.G G G O.!.!.k.' G G + X + G ",
"G G G G G G J | 9.9.9.9.9.9.G G U =.9.9.9.=.I G y - G G g a 5.c.x.7.7.s.z.i.s W 1.z.b.b.N.g r 1.9.9.G G G J ' !.E.k.>.G = + X + ",
"G G G G G G G J ' 9.9.9.9.9.G G Y 9.9.9.%.U G G t - G G g p 4.b.M.c.M.7.s.x.P.P.P.B.c.c.z.~ f +.=.| G G G G G ,.T.S.9...H # # # ",
"G G ] X.! G G G G %.8.9.9.9.* G Y 9.9.9.' G G G % - G G g 9 / c.c.M.c.x.5.5.7.s.B.c.B.V.z.W f @.[ G G G G G G G F.A.9.9.I G G G ",
"G G f.Y.9.G G G G G =.9.9.9.o = Y 9.9.9.' G G G G G G : g 9 T b.M.M.V.M.x.s.3.5.c.c.B.=Xz.2 . 7 * G G G G G G G =.9.9.9.I G G G ",
"G U.S.9.9.G G G G G G ..#.O o O o o o = G G G G G G G 6 f 9 2 / M.M.M.L.M.3.5.c.B.B.=XL.$.2 . u G G G G % t G G G ..9.9.I G G G ",
"G U.E.K.9.G G G G G G > > o o O o o o * G G G t = G q f /..X{.i.u.d.V.L.P.L.=X-X-X:X=Xh.~ 2 . u U =.G G % y G G G ..9.9., = G G ",
"G U.K.D.9.G G G G G G = * * * * # * * G G : % 4 : 6 h C #X].].&Xi.@.1.h.c.V.=X:X:X=Xn./ 2 9 . d %.9.G G % y G G # K E E & * G G ",
"G U.S.9.9.G G G G G G G G G G G G G G G G = 4 4 7 f F #X_.].XX>X&X|.3 T T s.c.x.( ^ T 1 3 . +.2.9.9.G G % t G G O o o o o * G G ",
"G =.9.9.9.9.' G G G + + + G G G G G G G G G G q f F oX[.].@X#X@X1X<XD 3 1 R / ( ) R T 3   l U.D.9.9.G G % y G G $ o o o o # G G ",
"G I %.9.9.9.| G G G # # G G G G G G G G G G u f C $X}.'.XX#X|._.*XXXA 9 9 T _ ) ) R p . c C.!.k.9.9.G G = = G G = # = = = G G G ",
"G G U ..9.9.&.| G G G G G G ..g.d.....#.I 8 f F OX].}.%X>X X_.Z A A A l f   r . . h f f @.!.S.0.=.| G G G G G ....U G G - - G G ",
"G G G Y 9.9.9.&.Y G = = H Y D.E.R.D.A.9.a h D oX.X|.;X>X|.].^.n Z V l v B M r w w w 6 : O.Y.9.9.%.G G G G H Y 9.&.Y G - t - G G ",
"G G G Y 9.9.9.9.9.G t - Y 9.!.!.!.!.~.p.f C $X|.}.OX>X@X'./.A j V z f e.!.!.,.G G G G G Y 9.9.9.%.G G G G Y 9.9.L G G 4 4 - G G ",
"G + # G G 9.9.9.9.G y - G G G G G # C.. /.OX]. X%X;X$XXXD Z j f f f +.9.9.!.!.G.G G G ..9.9.9.I G G G G G Y 9.9.I G G 4 = G G G ",
"G + X # G 9.9.9.9.G t - G G G G = 0 l D oX|.|.<X,X$X[.(.V j g ; ; < #.9.9.k.k.<.G G G ..9.9.9.I G G G G t.Y.R.9.I G G = = G G G ",
"G # # # G 9.9.9.9.G : : G G G G u f C %X[.[.@X,X>X,X/.Z j g 7 y = G U ' | 9.9.6...G G ..9.9.| H G G G t.Y.W.S.' H G G G G G G G ",
"G G G G G 9.9.9.9.G G G G G G w f /.@X[..X,X<X<X].[.V j f 5 t 4 = G G G G %.6.9.9.! G Q $.#.* = = * Y G.Y.J.9.G G G G G G G # G ",
"G G G G G 9.9.9.9.G G G G G q x S oXoX[.<X1X&X+X/.^.n h i G : 4 G G G G G G ..9.9.9., o o o o o O o 9.9.9.9.9.G G G G G G @ + G ",
"G G G * o 9.E o o o = G = u f C ;X[.|.%X,X;X>XD V A j x P G G G G G G G G G ..9.9.9., o o o o o o o 9.9.9.9.9.G G G G 9.L @ + G ",
"G G G G * E < o $ * G G w f `.+X[.|.&X,X*X,X2X^.z . N <.I ' ......J G G G G U ..9.9., o o o o o <  .9.9.#.' ' G G G G 9.I = # G ",
"G = = G = o $ $ $ G G 7 h S XX.X|.#X&X#X[.).).z l b 2.9.| *.0.A.A.X.H G G G G L #.#.< O $ o O , [ 9.9.9.' G G G G L ! 9.I G G G ",
"G t - G G o * G G G G 0 n ;X X X+X,X$X&X^.A Z k c 8.9.9.9.9.A.!.!.k.' G G G G * $ o o * = O o -.9.9.9.9.' G G G G ..9.9.L G G G ",
"G t - G G G G G G G G 0 n ;X|.&X;X+X,X2XV l l f @.9.9.9.E.!.!.!.!.' G G G G G G G o O * * o o o K 9.G G G G G G G f.!.9.9.' G G ",
"G t - G G G X.=.>.G = 0 n +XoXXX'.].'.^.l   0 w , %.9.9.k.:.] ] ' H G G G G - y G = = G G = o O & I G G G G G G F.E.!.9.9.| G G ",
"G - = G G f.0.9.9.G G 0 c '.A V V (.A V f 6 G * * $.9.9.8.] * * G G - y % G y t % G G G G G * * = G G G G G G = H.Y.S.8.9.' G G ",
"G G L ' O.!.l.%.*.G G 0 l '.A V V V z j f 6 G o o E #.9.9.E o o G : t t t G - y % - - = G G G G G G G G G G G ! G.A.9.9.&.Y G G ",
"G G ..A.!.!.,.G G G G w h V n z z j c x 8 ; G o o o o 9.9.E o o G t 4 y G G G G G 4 4 - G G G G G G G G G G G 9.9.9.9.9.I G G G ",
"G G f.!.!.9.' G G G G G w   g g x x Z.!.,.G G G $ o o 9., o @ = G G G G G G G G G G G G G G G t 4 4 G G @ o o o -.' G G G G G G ",
"G G f.R.q.9.6...G G G G G G G G Y 9.k.E.,.G G G = $ o , $ * = G G G G G G U.;.G G G G G G G G = - 4 t = $ o o o < G G G G % % G ",
"G G f.Y.9.9.9.=.Y G G G G G G G Y 9.9.H.;.G G G G # $ o $ = G G G G L Y ! Y.;.G G G G G G G G G = t 4 = * $ $ $ * * G G G % t G ",
"G G f.Y.9.9.9.9.9.G G G G G G G Y 9.9.9.| G G G G G G o = G G G G G ..9.9.9.' G G G G G G G G G G G 4 : G G G G G G G G G % % G ",
"G G ..9.9.9.9.9.9.9.I G G G G =.9.9.9.9.' G G G t 4 4 G G G G G G =.9.9.9.G G G G 9.9.9.%.G G G G G G G G G G G G G G G G % t G ",
"G G ..9.9.9.9.9.9.9.=.! G G G =.9.9.9.9.' G G G t % = G G G G G U.w.9.=.L G G G G 9.K.R.H.=.=.=...G G G G G G G F.U.U.=.L = = G ",
"G G U ..9.9.9.9.9.9.9.[ * * $ -.9.9.9.9.| G G G - = G G G G ] f.G.0.9.%.G G G G G ' ;.H.Y.9.9.9.%.G G G G G G f.E.K.S.9.I G G G ",
"G G G I %.9.9.9.9.9.9.[ , o W >.9.9.9.9.| G G G G G G G G G X.Y.9.9.9.%.G G G G G G G ,.D.9.9.9.=.Y G G G H Y Y.Y.A.9.%.J G G G ",
"G G G G G 9.9.9.9.9.9.9.#.o 8.9.9.9.9.9.' G G G G G G G G G Y 9.9.9.9.%.G G G G G G G G ! 9.9.9.9.9.G G G Y 9.9.9.9.9.G G G G G ",
"G G G G G 9.9.9.9.9.9.9.#.o 9.9.9.9.9.I % 4 4 G G ..9.9.9.9.9.9.9.9.' G G G G G G G G G G G 9.9.9.9.o o  .9.9.9.9.| G G G G G G ",
"G G G G G I %.9.9.9.E < > o , , E 9.L G G : : G G d.R.R.q.9.9.9.9.9.' G G G - % G G G G G G 9.9.9.8.o o  .9.9.9.! H G G G G G G ",
"G G G G G G U ' ' ' & o o o o * J | G G G G G G G X.,.,.8.9.9.9.9.9.&.| G G : - % G G G G G ' ' ' E o [ =.9.9.9.L G G G G G G G ",
"G G G G G G G G G G O o o O o * G G G G G G G G G G G G =.9.9.9.9.9.9.%.G G G : 4 G G G G G G G * o o -.9.9.9.9.I G G G G G G G ",
"G G G G G G G G G G G G G G G G : 4 G t - G G G G G G G G ..9.9.o -.9.9.9.G = : 4 G G G G G G $ o o o o  .9.9.G G G G G t 4 y G ",
"G G - t t G - % G G @ # G G G G G = t - = G G + + # G G G H I I o < , , , $ * - 4 G G G # + + # = = o o  .9.9.G G G G t 4 - : G ",
"G G : % 4 % t t G G + + # G G G G G - = G G G # # = G G G G G G * O o o o # = : 4 G G G # X # = G G * # K Q | G G G G - - = G G ",
"G G G = y y t - G G + + # G G G G G G G G G G G G G G G G G G G G * $ $ $ G G = y G G G = + G G G G G G * * G G G G G G G G G G ",
"G G G G G G G G G G G G G G G G G G G G G G G G G G G G G G G G G G G G G G G G G G G G G G G G G G G G G G G G G G G G G G G G "
};
