/* XPM */
static char *d54f0c1382804b0efbd8328496f4369eKolOvFENDuhGEaEw[] = {
/* columns rows colors chars-per-pixel */
"64 64 196 2 ",
"   c #2C3D3E",
".  c #303F3D",
"X  c #4A3B3B",
"o  c #0A5E19",
"O  c #006E00",
"+  c #00660F",
"@  c #00690F",
"#  c #007305",
"$  c #007709",
"%  c #007B0D",
"&  c #006D10",
"*  c #006D1F",
"=  c #086E12",
"-  c #007511",
";  c #007C14",
":  c #00741B",
">  c #017918",
",  c #0B7518",
"<  c #147A17",
"1  c #127816",
"2  c #005D27",
"3  c #0A5D28",
"4  c #1D592D",
"5  c #284937",
"6  c #2E423B",
"7  c #274C35",
"8  c #225231",
"9  c #375B3A",
"0  c #006423",
"q  c #006821",
"w  c #146724",
"e  c #396238",
"r  c #7E581F",
"t  c #4E4B3A",
"y  c #6D4F2C",
"u  c #74532A",
"i  c #7B5B32",
"p  c #614935",
"a  c #43693C",
"s  c #393245",
"d  c #3E374A",
"f  c #323840",
"g  c #433A48",
"h  c #443C53",
"j  c #3E4244",
"k  c #42464A",
"l  c #445641",
"z  c #4C435B",
"x  c #514D5B",
"c  c #5C4E4A",
"v  c #6E5C53",
"b  c #526D45",
"n  c #786A58",
"m  c #564C68",
"M  c #5C526D",
"N  c #595366",
"B  c #645976",
"V  c #706E7A",
"C  c #875E1F",
"Z  c #A46B06",
"A  c #AD7208",
"S  c #B97A08",
"D  c #826135",
"F  c #9E7633",
"G  c #A67725",
"H  c #A57A31",
"J  c #9C680E",
"K  c #887452",
"L  c #008213",
"P  c #0A8A17",
"I  c #0C8918",
"U  c #1C841A",
"Y  c #128F19",
"T  c #14901A",
"R  c #19941C",
"E  c #1F981D",
"W  c #298E1E",
"Q  c #258A1D",
"!  c #239B1F",
"~  c #29941F",
"^  c #1C9321",
"/  c #299E22",
"(  c #279623",
")  c #329A22",
"_  c #2CA122",
"`  c #3DA226",
"'  c #3CAD27",
"]  c #35A529",
"[  c #3DA731",
"{  c #538A3C",
"}  c #4C9934",
"|  c #47AC2A",
" . c #47B42B",
".. c #4EB92D",
"X. c #49B62B",
"o. c #52BC2E",
"O. c #52B62D",
"+. c #44AC32",
"@. c #52B43B",
"#. c #59BB33",
"$. c #56AE33",
"%. c #62BC36",
"&. c #5AC131",
"*. c #66CA35",
"=. c #67C938",
"-. c #74D13E",
";. c #72CF3E",
":. c #77895A",
">. c #61BE43",
",. c #6CC546",
"<. c #79CC4E",
"1. c #72CA49",
"2. c #7BD443",
"3. c #7ED24C",
"4. c #B48739",
"5. c #C5830B",
"6. c #D89414",
"7. c #C98E1A",
"8. c #E69E18",
"9. c #E9A31E",
"0. c #CD9321",
"q. c #DFA32B",
"w. c #DEAC3C",
"e. c #E9A724",
"r. c #F1B22E",
"t. c #E3AB35",
"y. c #EEB234",
"u. c #EFB63C",
"i. c #F1B738",
"p. c #988256",
"a. c #AC9155",
"s. c #B09252",
"d. c #968561",
"f. c #AD9965",
"g. c #96B564",
"h. c #C09D4F",
"j. c #D6AA43",
"k. c #EBBB48",
"l. c #F2BD44",
"z. c #F3BF48",
"x. c #C6B070",
"c. c #82D947",
"v. c #84DA49",
"b. c #8EDF4F",
"n. c #82D44E",
"m. c #87D555",
"M. c #90DD55",
"N. c #97E357",
"B. c #A5EA5E",
"V. c #A2E562",
"C. c #ACED63",
"Z. c #B2EF6A",
"A. c #B6F469",
"S. c #BAF56C",
"D. c #B9F66B",
"F. c #F5C24B",
"G. c #F7C54B",
"H. c #F9CD5B",
"J. c #F6C957",
"K. c #EAC057",
"L. c #F9D061",
"P. c #FAD56C",
"I. c #F7D36B",
"U. c #FADE7F",
"Y. c #F9D773",
"T. c #CAFE76",
"R. c #746B85",
"E. c #7C758B",
"W. c #847F92",
"Q. c #847E8F",
"!. c #86888C",
"~. c #8C8999",
"^. c #918F9D",
"/. c #95959C",
"(. c #9E9389",
"). c #A9A194",
"_. c #9695A1",
"`. c #9A9BA3",
"'. c #9897A2",
"]. c #9FA0A6",
"[. c #A2A8A5",
"{. c #A3A5AA",
"}. c #A6AAAD",
"|. c #A9ABB1",
" X c #AEB2B3",
".X c #B4B9B8",
"XX c #BBC4BD",
"oX c #FBDF85",
"OX c #FBE48F",
"+X c #FCEEB8",
"@X c #FCEBA6",
"#X c #BFC7C1",
"$X c #C3CBC4",
"%X c #D0D7D1",
"&X c #CBD3CC",
"*X c #D8E0D7",
/* pixels */
"L L L L L L L L L L L L L L L L L L L L L L L L L L L L L L L L L L L L L L L L L L L L L L L L L L L L L L L L L L L L L L L L ",
"L L L L L L L L L L L L % # # # # # L L L L L L L L L L L : q L L L L L L L L > 0 0 - L L L L L L L L L L L L L L L L L L L L L ",
"L L L L L L L L L ' I L % % % % % % L L L L L L L L L L L q 0 * L L L L L L L L : : L L L L L L ; * L L L L L L : q * * L L L L ",
"L L L ; > L L L L *.T L L L L L L L L L L L L [ [ [ [ L L : q q L L T E E E E E ! L L L L L L > : 2 L L L L L L q q q q ; L L L ",
"L L L > 2 L L L L *.T L L L L L L L L L L L L T.T.T.T.L L L L L L L ' *.*.*.*.*.*.L L L L L L 0 2 2 L L L L L L L L L L L L L L ",
"L L q q L L L E *.*.T L L L 2 2 q L L L ' v.T.T.2.*.*.L L L L L L L L ! *.T.b.*.*.*.T L L L 2 > L L L L L L L *.*.*.*.L L L L L ",
"L L > > L L L ] B.*.T L ; * 2 : > L L _ o.2.b.b.' / / L L L > q L L L P _ T.Z.b.*.*.T L L L : ; L L L L / ' ' *.*.*.*.' ' R L L ",
"L L L L L L L [ T.*.T L > q q > L L E &.*.*.*.*.Y L L L L ; : 2 L L L L L C.S.C.*.*._ P L L L L L L L R  .*.*.*.*.*.*.*.*./ L L ",
"L L L L L L L [ T.*.T L L L L L L L *.*.*.*.*.*.T L L L L q 2 2 L L L L L *.B.B.=.*.*._ L L L L L L L o.*.*.*.*.*.*.*.*.*._ L L ",
"L L L L L L ' v.T.*.T L L L L L L L *.*.*. .L L L L L L q 2 q L L L L L L L ' *.*.*.*._ L L L L L L L o.*.*.*.*.*.*.*.T.T.b. .L ",
"L L L L L L ,.S.T.*.o.o.' L L L L L *.*.*. .L L L L L 0 2 : > L L L L L L L P _ *.*.*.&.' L L L L L o.*.*.*.*.*.*.N.A.T.T.S.3.L ",
"L L L L L L <.D.b.*.*.*. .L L L L L *.*.*.X.L L L L L : : > L L L L L L L L L ! *.*.*.*. .L L L L L *.*.*.*.*.*.] | @.@.Z.3.[ L ",
"L L ; > L E 1.N.*.*.*.*. .L L L L L *.*.*...E E P L L L L L L L L L L L L L L T X.*.*.*.X.L L L P E *.*.=.&. .X.I L L L 1.[ L L ",
"L L * q L *.*.*.*.*.*.*. .L L L L L *.*.*.*.*.*.Y L L L L L L L L L L ; L L L L L *.*.*.X.L L L E *.*.*.=. .L L L L L L L L L L ",
"L L * q L *.*.*.*.*.*.*. .L L L L L *.*.*.*.=.T.( L L L L ' v.T.*.*.*.=.*.; L L L *.*.*.X.L L o.*.*.*.*./ L L L L L L L L L L L ",
"L q 0 q L T  .*.*.*.*.*. .L L L L L *.*.=.2.S.T./ L L L L ' v.T.A.A.b a l . 6 6 6 e $.=. .L L o.*.*.*./ I L L L L L L L L L L L ",
"L 0 0 : L L ' *.*.*.*.*.o.! L L L L *.*.*.2.C.M.^ L L L L _ #.M.T.g.s s d.a.s.f.v s a {  .L L o.*.*.*.Y L L L L L L L L L L L L ",
"L 0 : L L L ' *.*.*.*.*.*.*.L L L L *.*.*.*.*.L L L L L L L L L :.s n L.7.5.8.9.k.x.s s 7 L L ..*.*.*.Y L L L L L L L L L L L L ",
"L L L L L L ' =.*.*.*.*.*.*.L L L L *.*.*.*.*.L L L L L L L L L s n r.6.e.y.u.F.l.y.u.p.s 7 *.*.*.*.L L L [ T.T.2._ L L # O $ L ",
"L L L L L L I _ *.*.*.*.*.*.L L R o.*.*.*...Y L q > L L $ # % 6 c s.9.F.J.H.L.J.k.F.i.k.s.g e $.*.*.L L L I ( T.S.2.o.L ; $ O # ",
"L L L L L L L P _ *.*.*.*.*.L L E *.*.*.| R L L 0 : L L % # # s s.y.r.H.L.L.P.t.5.e.L.y.y.K s { o._ L L L L L @.Z.b.*.' P % % % ",
"L L ( ] ! L L L L X.&.*.*.*.- L E *.*.*._ L L L q > L L L % # s s.G.H.L.G.L.oXS A Z q.F.l.I.s j ) L L L L L L L b.c.*.*.T L L L ",
"L L <.C.*.L L L L L o.*.*.*.+ ; E *.*.*._ L L L L L L L L L L s s.J.G.l.e.i.oXA J Z A k.L.L.n s - L L L L L L L o.*.*.*.T L L L ",
"L V.b.*.*.L L L L L L ' | + + + + + + ; L L L L L L L L L L L s G F.L.G.i.l.l.x.K Z h.L.L.I.K s 8 L L L q q L L L ' *.*.T L L L ",
"L V.S.B.*.L L L L L L < 1 + + + + @ + ; L L L 0 > L L 0 0 : L s G l.H.L.L.F.L.G.Y.oXU.L.L.L.y.i s o.L L * q L L L ' *.*.< ; L L ",
"L V.C.c.*.L L L L L L ; - % - - - - % L L > * 2 > L L > 0 : L s C 6.L.L.L.L.F.y.l.G.L.L.L.P.q.i s *.L L * q L L - U W W = - L L ",
"L V.b.*.*.L L L L L L L L L L L L L L L L > 2 2 > L L L 0 : , s u 5.H.L.L.P.L.u.r.z.L.L.P.oX0.u s *.L L * q L L @ + + + @ - L L ",
"L ..*.*.*.*.! L L L # # $ L L L L L L L L L L L L L L L ; > 5 s K H q.Y.L.P.Y.F.i.L.I.oXOXP.5.u s *.L L * q L L @ + + + @ - L L ",
"L T  .*.*.*._ L L L % L % L L L L L L L L L L L L L L L L 7 s [.]./.).4.k.Y.I.Y.oX+X+X+XU.y.A y s =.L L ; ; L L ; ; % ; ; ; L L ",
"L L R ' *.*..._ L L L L L L ' ,.,.' ' ' R L L L * * * q 5 k !.{.~./.XX(.4.7.j.J.Y.oXY.k.w.S r g 9 / L L L L L ' ' R L ; : > L L ",
"L L L E *.*.*...E L > ; P E c.S.A.c.c.=.' ! E L * q 3   s !.{.W.}..X#X&X).D Z 0.e.y.9.5.S Z X s X.L L L L P E *...E L > 0 : L L ",
"L L L E *.*.*.*.*.L * * E *.T.T.T.T.T.2.*.*.*.L L L 8 s [.|.~.`.XX{. X*X'.v Z S 6.9.9.5.S t s {  .L L L L E *.*.T L L 2 2 : L L ",
"L # % L L *.*.*.=.L 0 : L L L L L L T.2.*.*.*.*.R 6 x /.{.^. XXX/.W.B R.B m s p u D D p s s #.Y L L L L ; E *.*.T L L 2 > L L L ",
"L # O % L *.*.*.=.L 0 : L L L L L L ( #.*.*.*.=.e d V  X_.{.$X`./.R.m B M h s s s s s s l { *.T L L L L >.C.A.*.T L L > L L L L ",
"L % % % L *.*.*.*.L > ; L L L L L L L ! / ' %.l s /.}.^.{.#X X~.Q.B h m g 6 *.o.' L L | *.*./ P L L L >.C.A.b./ P L L L L L L L ",
"L L L L L *.*.*.*.L L L L L L L L L L L L Y a d [.[._.|.#X.X{.B m s s s 6 } &.=.*.! L ( | | - - - - ( M.C.N.*.L L L L L L L % L ",
"L L L L L *.*.*.*.L L L L L L L L L L L > 7 k !.}._. X&X.X{.R.m d j , , , L ' *.*.*.< + + + + + & + *.*.*.*.*.L L L L L L $ # L ",
"L L L - + *.W + + + ; L L L L q 0 2 2 : 4 s V  X^.}.#XXX$X`.M s 6 w L L L L ' *.*.*.1 + + + + + + + *.*.*.*.*.L L L L *.T $ $ L ",
"L L L L - W 1 @ @ - L L L L L : : : 2 f d [.|.^.`.%XXX].E.M s s ' P L L L L R ' *.*.< + + + + + 1 ` *.*. ./ / L L L L *.T % % L ",
"L > ; L L + @ & & L L % % ; L L L L f x /.`.'.XX%XXX[.E.R.z s b.v._ I L L L L T | | 1 & & + @ < ) *.*.*./ L L L L Y E *.T L L L ",
"L 0 : L L + - L L L L $ O O L L L 8 s !. X/.|.&X X&X^.M m s b T.T.2._ L L L L ; & + + > ; @ + O.*.*.*.*./ L L L L ' *.*.Y L L L ",
"L 0 : L L L L L L L L L L L L , 5 s /.{.^.}.$X X X.XQ.h s :.T.T.T.( L L L L L L L + + - - + + + U *.L L L L L L L <.T.*.*.! L L ",
"L 0 : L L L _ o.o.L L L L L o.a s [.{._. X$X.X^.R.M h s { +./ ( / I L L L L : q L ; - L L ; + + = T L L L L L L n.S.T.*.*._ L L ",
"L > ; L L <.1.*.*.L L L L L / e s XX'. X.X X$X~.B m h l =.~ - = L L > q * L q 0 * L L L L L - - - L L L L L L L V.V.N.*.*._ L L ",
"L L Y / [ T.2.X.X.L L L L L L 9 s .X}.$X}.}..XE.s s s { *.W + + L : 0 0 0 L * q q > > ; L L L L L L L L L L L ! M.c.*.*...R L L ",
"L L ' v.T.T.@.L L L L L L L L 8 s ^.E.B B E.B h s o o *.*.W + + L 0 0 q L L L L L 2 2 : L L L L L L L L L L L =.*.*.*.*.T L L L ",
"L L <.T.T.*./ L L L L L L L L 8 s ~.B M m m h d s + + =.< + & L L L L L L L L L L L L L L L L 0 2 2 L L & + + + O./ L L L L L L ",
"L L <.A.-.*.#.' L L L L L L L 8 s N z h h d s s w & + < & - L L L L L L L V.+.L L L L L L L L ; : 2 0 L $ + + + < ; L L L : * L ",
"L L <.C.*.*.*.o.E L L L L L L L 8 s s s s s , L L - & + & - L L L L Y E E C.+.L L L L L L L L L > q 2 > - & & & & ; L L L q q L ",
"L L <.C.*.*.*.*.*.L L L L L L L E *.*.*./ L L L L L L + ; L L L L L ' *.*.*._ L L L L L L L L L L L 0 > L L L L L L L L L q q L ",
"L L ' *.*.*.*.*.*.*.T L L L L o.*.*.*.*./ L L L 0 2 2 L L L L L L o.*.*.*.L L L L *.*.*. .L L L L L L L L L L L L L L L L q q L ",
"L L ' *.*.*.*.*.*.*.o.! L L L o.*.*.*.*./ L L L 0 : > L L L L L V.;.*...T L L L L *.V.A.N.o.o.o.' L L L L L L L n.V.V.o.T ; L L ",
"L L R ' *.*.*.*.*.*.=.( $ & - O.*.*.*.*./ L L L > > L L L L ( <.b.;.*.X.L L L L L _ +.N.C.*.*.*. .L L L L L L <.S.B.b.*.T L L L ",
"L L L T X.*.*.*.*.*.*.) < + Q #.*.*.*.*./ L L L L L L L L L ] C.*.*.*. .L L L L L L ; >.c.*.*.*.o.^ L L L P E C.C.c.*.X.I L L L ",
"L L L L L *.*.*.*.*.*.*.| + *.*.*.*.*.*./ L L L L L L L L L E *.*.*.*. .L L L L L L L L ! *.*.*.*.*.L L L E *.*.*.*.*.L L L L L ",
"L L L L L *.*.*.*.*.*.*.| + *.*.*.*.*.T * 2 2 L L ' *.*.*.*.*.*.*.*./ L L L L L L L L L L L *.*.*.*.+ + ` *.*.*.*._ L L L L L L ",
"L L L L L T  .*.*.*.Q < 1 + < < ( *.Y P - ; > L L ,.A.A.-.*.*.*.*.*.! L L L : * ; L L L L L =.*.*.*.+ + | *.*.*./ P L L L L L L ",
"L L L L L L T _ _ ! = + + + + $ I / ; L L L L L L ] @.@.*.*.*.*.*.*.../ L L > : * L L L L L _ ! ~ Q + ) O.*.*.*.T L L L L L L L ",
"L L L L L L L L L L = + + + + > ; L L L L L L L L L L L o.*.*.*.*.*.*.X.L L L > 2 L L L L L L L - @ + O.*.*.*.*.T L L L L L L L ",
"L L L L L L L L L L L L L L L L > 2 L 0 > L L L L L L L L ' *.*.+ O.*.*.*.L ; > 2 L L L L L L & + @ + + ` *.*.L L L L L 0 2 q L ",
"L L : 0 0 L : * L L $ % L L L L ; ; 0 > ; L L # # % L L L P T T + 1 < < < & - > 2 L L L % # # % ; % + + ) =.*.L L L L 0 2 * ; L ",
"L L > * 2 * 0 0 L L # # % L L L L L > ; L L L % % ; L L L L L L - @ + + + - ; > 2 L L L % O % L L L - - U ( _ L L L L > > > L L ",
"L L L > q q q * L L $ # $ L L L L L L L L L L L L L L L L L L L L - & & - L L > * L L L ; $ L L L L L L - - L L L L L L L L L L ",
"L L L L L L L L L L L L L L L L L L L L L L L L L L L L L L L L L ; L L L L L L L L L L L L L L L L L L L L L L L L L L L L L L "
};
