/* XPM */
static char *_f6e7527f2474beeafeefde2fa7a3b1aaHfWktQFCBdZ3glr[] = {
/* columns rows colors chars-per-pixel */
"64 64 182 2 ",
"   c #010101",
".  c #080705",
"X  c #0C0A06",
"o  c #010208",
"O  c #0E0D09",
"+  c #010C04",
"@  c #001204",
"#  c #001A04",
"$  c #0D1B07",
"%  c #001208",
"&  c #1B170F",
"*  c #020A15",
"=  c #030718",
"-  c #04081A",
";  c #030613",
":  c #1C1810",
">  c #1A1A1A",
",  c #100E09",
"<  c #221E13",
"1  c #002205",
"2  c #002A06",
"3  c #05240A",
"4  c #14260A",
"5  c #003408",
"6  c #003A09",
"7  c #083209",
"8  c #1C370E",
"9  c #18350D",
"0  c #003215",
"q  c #282318",
"w  c #362F1E",
"e  c #37301E",
"r  c #050B23",
"t  c #060D2A",
"y  c #071033",
"u  c #08123B",
"i  c #06202F",
"p  c #343434",
"a  c #433A26",
"s  c #453F2F",
"d  c #00450A",
"f  c #004C0B",
"g  c #00570D",
"h  c #004F18",
"j  c #2B4718",
"k  c #275816",
"l  c #006E00",
"z  c #00650F",
"x  c #006A0F",
"c  c #007305",
"v  c #007709",
"b  c #007B0D",
"n  c #006D10",
"m  c #006D1F",
"M  c #086E12",
"N  c #007511",
"B  c #007C14",
"V  c #00731B",
"C  c #007918",
"Z  c #0B7714",
"A  c #147B17",
"S  c #147616",
"D  c #376C1C",
"F  c #33651B",
"G  c #227B1A",
"H  c #005D27",
"J  c #374620",
"K  c #224332",
"L  c #006423",
"P  c #006821",
"I  c #376D26",
"U  c #564A30",
"Y  c #504630",
"T  c #625537",
"R  c #655839",
"E  c #416D2A",
"W  c #091546",
"Q  c #0C1B58",
"!  c #062C46",
"~  c #0F2066",
"^  c #0F216B",
"/  c #0F2972",
"(  c #11277D",
")  c #094D7B",
"_  c #0D417E",
"`  c #777E44",
"'  c #646464",
"]  c #686868",
"[  c gray46",
"{  c #647269",
"}  c #4E4E4E",
"|  c #89774D",
" . c #008213",
".. c #0A8916",
"X. c #0D8918",
"o. c #118F19",
"O. c #1A8419",
"+. c #14901A",
"@. c #19941C",
"#. c #1F981D",
"$. c #298E1E",
"%. c #258A1D",
"&. c #249B1F",
"*. c #29941F",
"=. c #299F21",
"-. c #249825",
";. c #319621",
":. c #2CA122",
">. c #3DA226",
",. c #3CAD27",
"<. c #35A529",
"1. c #3DA731",
"2. c #4C9527",
"3. c #4A9527",
"4. c #50922D",
"5. c #6C873F",
"6. c #47AC2A",
"7. c #46B42B",
"8. c #4DB82D",
"9. c #52BC2E",
"0. c #52B62D",
"q. c #56BE30",
"w. c #51B43B",
"e. c #5BBB31",
"r. c #49A62D",
"t. c #5AC231",
"y. c #62C534",
"u. c #66CA35",
"i. c #6ECD3D",
"p. c #72D03D",
"a. c #61BE43",
"s. c #79CC4E",
"d. c #72CA49",
"f. c #7AD443",
"g. c #7ED24C",
"h. c #6DC647",
"j. c #9EA139",
"k. c #C2BC11",
"l. c #D6D013",
"z. c #838B4C",
"x. c #9D8958",
"c. c #A18C5A",
"v. c #A6905C",
"b. c #AA945F",
"n. c #96BD58",
"m. c #B29B64",
"M. c #AD9661",
"N. c #C4AA6D",
"B. c #CCB172",
"V. c #82D947",
"C. c #8EDF4F",
"Z. c #84DA49",
"A. c #83D353",
"S. c #90DD55",
"D. c #95E254",
"F. c #9EE75A",
"G. c #A4EA5E",
"H. c #A2E562",
"J. c #ACED63",
"K. c #B2EF6A",
"L. c #BAF56C",
"P. c #B8F56A",
"I. c #CAFE76",
"U. c #122884",
"Y. c #122A88",
"T. c #142E96",
"R. c #142E98",
"E. c #14349A",
"W. c #153086",
"Q. c #1634A9",
"!. c #1836B2",
"~. c #1838BA",
"^. c #1736B0",
"/. c #0B5B90",
"(. c #0C5189",
"). c #125FB9",
"_. c #1344A6",
"`. c #1A3CC5",
"'. c #1C41D6",
"]. c #116AC1",
"[. c #0F85D4",
"{. c #1082D2",
/* pixels */
" . . . . . . . . . . . . . . . .B  . . . . . . . . . . . . . . . . . . . . . . . . . . . . . . . . . . . . . . . . . . . . . . .",
" . . . . . . . . . . . .b c c c c c  . . . . . . . . . . .V V  . . . . . . . .C L L C  . . . . . . . . . . . . . . . . . . . . .",
" . . . . . . . . .,.X. .b b b b b b  . . . . . . . . . . .P L m  . . . . . . .C V V B  . . . . .C P  . . . . . .V m m P  . . . .",
" . . .B C  . . . .u.+. . . . . . . . . . . . .1.1.1.1. . .V P P  . .o.#.#.#.#.#.#. . . . . . .C V L  . . . . . .P P P P B  . . .",
" . . .C H  . . . .u.+. . . . . . . . . . . . .I.I.I.I. . . . . . . .,.u.u.u.u.u.u. . . . . . .P H H  . . . . . . . . . . . . . .",
" . .P P  . . .#.u.u.+. . . .H H P  . . .,.Z.I.I.p.u.u. . . . . . . . .&.u.I.C.u.u.u.+. . . .H C  . . . . . . .u.u.u.u. . . . . .",
" . .C C  . . .<.G.u.+. .C m H V C  . .:.9.p.C.C.6.:.:. . . .B P  . . ...=.I.K.C.u.u.+. . . .C B  . . . .=.,.,.u.u.u.u.,.,.@. . .",
" . . . . . . .1.I.u.+. .B P P C  . .&.t.u.u.u.u.+. . . . .B m H  . . . . .G.I.J.u.u.:.X. . . . . . . .@.7.u.u.u.u.u.u.u.u.:. . .",
" . . . . . . .1.I.u.+. . . . . . . .u.u.u.u.u.u.o. . . . .P H H  . . . . .u.G.J.u.u.u.&. . . . . . . .9.u.u.u.u.u.u.u.u.u.:. . .",
" . . . . . .,.Z.I.u.+. . . . . . . .u.u.u.7. . . . . . .P H P  . . . . . . .,.u.u.u.u.=. . . . . . . .9.u.u.u.u.u.u.u.I.I.C.7. .",
" . . . . . .h.L.I.u.q.9.,. . . . . .u.u.u.3.@ # # # # # % % @ # # # # # # # 3 4 4 4 4 $ 6  . . . . .9.u.u.u.u.u.u.D.P.I.I.L.g. .",
" . . . . . .s.P.C.u.u.u.7. . . . .Z u.u.u.3.                  o                         1  . . . . .u.u.u.u.u.u.<.6.w.w.K.g.1. .",
" . .B C  .#.d.D.u.u.u.u.7. . . . . .u.r.2.I y y y y y y y y y y y y t r r r r t y y o   1  . . ...#.u.u.u.t.7.7.X. . . .s.1. . .",
" . .P P  .u.u.u.u.u.u.u.7. . . . . .u.$ o W '.'.'.'.'.'.'.'.'.'.'.'.^.T.R.R.T.!.'.'.r   1  . . .#.u.u.u.u.7. . . . . . .C  . . .",
" . .V P  .u.u.u.u.u.u.u.7. . . . . .u.$   W '.'.'.'.'.'.'.'.'.'.'.'.^.T.T.T.T.!.'.'.r   1  . .9.u.u.u.u.:. . . . . . . . . . . .",
" .P L P  .+.7.u.u.u.u.u.7. . . .g 2 8 W.T.^.'.'.'.'.'.'.'.'.'.'.Q.Q.{ j.j.j.j.{ Q.Q.-   1  . .9.u.u.u.=... . . . . . . . . . . .",
" .L L V  . .6.u.u.u.u.u.9.#. . .d     ~.'.'.'.'.'.'.'.'.'.'.`.'.T.T.z.l.l.l.l.z.T.T.=   1  . .9.u.u.u.+. . . . . . . . . . . . .",
" .L V  . . .,.u.u.u.u.u.u.u. . .d     ~.'.'.'.'.'.'.'.'.'.`.`.`.Y.Y.` k.k.k.k.` Y.Y.=   1 N N 0.u.u.u.+. . . . . . . . . . . . .",
" . . . . . .,.u.u.u.u.u.u.u. . .d     ~.'.'.'.'.'.'.'.'.'.W                                   3.u.u. . . .1.I.I.f.=. . .c l c  .",
" . . . . . ...:.u.u.u.u.u.u. . .d     ~.'.'.'.'.'.'.'.'.'.W                                   2.u.u. . . .X.-.I.L.f.q. .B v l c ",
" . . . . . . .X.=.u.u.u.u.u. . .d     ~.'.'.'.'.'.'.~.Q Q ( U.U.U.U.U.U.U.U.U.U.Y.Y.Y.U.Y.Y.U.K j k  . . . . .w.K.C.u.,...b b b ",
" . .-.<.#. . . . .7.y.u.u.u.N  .d     ~.'.'.'.'.'.'.Q.    Y.'.'.'.'.'.'.'.'.'.'.`.'.'.'.'.'.'.u   @  . . . . . .C.V.u.u.+. . . .",
" . .s.J.u. . . . . .9.u.u.u.z N d     ~.'.'.'.'.'.'.^.    Y.'.'.'.'.'.'.'.'.'.'.'.`.'.'.`.'.'.u   @  . . . . . .9.u.u.u.+. . . .",
" .H.C.u.u. . . . . . .,.6.n z z 5       o o o o o o o     o o o o o o o o o o o ; o o o o o o     @  . .m m  . . .,.u.u.+. . . .",
" .H.L.G.u. . . . . . .Z S x x x 6       .     o   .                                               $  . .m P  . . .,.u.u.A N  . .",
" .H.J.V.u. . . . . . .B N N b N 6     p p p p p p p p     a T T T T T T T T T T T T ,   @ 6 F F F D  . .m m  . .N O.$.%.M N  . .",
" .H.C.u.u. . . . . . . . . . . .d     ' [ [ [ [ [ [ '     | B.B.B.B.B.B.B.B.B.B.B.B.<   1  .u.u.u.u. . .m P  . .x z z x n N  . .",
" .8.u.u.u.u.=. . . .c c c  . . .d     ' [ [ [ [ [ [ '     | B.B.B.B.B.B.B.B.B.B.B.B.<   J I.I.f.u.u. . .m P  . .n x z z x N  . .",
" .+.7.u.u.u.:. . . .b B  . . . .d     ' [ [ [ [ q * q m.m.Y & < B.B.B.B.B.q & T B.B.<   J I.I.f.u.u. . .B B  . .B B B B N  . . .",
" . .@.,.u.u.8.:. . . . . . .,.h.E     ' [ [ [ [ >   < B.B.a   . B.B.B.B.B.O   U B.B.<   J I.C.i.9.=. . . . . .,.,.@. . .V C  . .",
" . . .#.u.u.u.8.#. .B B ..#.V.L.5.    ' [ ] } } Y a T B.B.a   . B.B.B.B.B.O   U B.B.<   j J.u.u.7. . . . ...&.u.9.@. .V L V  . .",
" . . .#.u.u.u.u.u. .L V #.u.I.I.5.    ' [ }     x.B.B.B.B.a   . B.B.B.B.B.O   U B.B.<   8 u.u.u.7. . . . .@.u.u.+. . .H H V  . .",
" .c b  . .u.u.u.u. .L V  . . . .d     ' [ }     x.B.B.B.B.a   . B.B.B.B.B.,   U B.B.<   8 u.u.+. . . . . .#.u.u.o. . .H B  . . .",
" .c l b  .u.u.u.u. .L V  . . . .d     > > s x.c.N.B.B.B.B.b.c.c.B.B.B.B.B.c.x.m.B.B.<   8 u.u.+. . . . .a.J.P.u.o. . .C  . . . .",
" .b b b  .u.u.u.u. .C C  . . . .d         a B.B.B.B.B.B.B.B.B.B.B.B.B.B.B.B.B.B.B.B.<   8 u.&... . . .a.J.L.C.&... . . . . . . .",
" . . . . .u.u.u.u. . . . . . . .d         e v.v.v.v.v.v.v.v.v.v.v.v.v.v.v.v.v.v.v.v.:   9 6.N B N N &.S.J.D.u. . . . . . .B B  .",
" . . . . .u.u.u.u. . . . . . . .d                   .     .   .           .     .       # z z z x x u.u.u.u.u. . . . . . .v c  .",
" . . .N z u.$.z n z N  . . . .L 0       .     .     .           .   . .     .       .   # x z x x x u.u.u.u.u. . . . .u.+.c c  .",
" . . . .N $.S z n N  .f 2 2 2 # %     .   i /././ ~ ~ ~ ~ (././.~ ~ _ /./.~ ~ u   .   . + 1 1 1 # 7 u.u.6.=.:. . . . .u.+.b  . .",
" .C B  . .z n n n  . .5                 . ! {.{._.T.T.T.T.].{.{.T.T.).[.{.E.T.Q   .               $ u.u.:. . . . .o.&.u.+. . . .",
" .P V B  .z N  . . . .5     X X , X X .   ! {.{._.E.E.E.E.].[.{.T.T.).{.[.E.E.Q + . X X O X .     $ u.u.&. . . . .,.u.u.o. . . .",
" .L V  . . . . . . . .5     N.B.B.B.B.:   ! [.[.[.[.[.[.[.{.[.{.T.T.).{.[.[.[.)     b.B.B.B.B.w   $  . . . . . . .s.I.u.u.=. . .",
" .L V  . . .<.9.9. .B 5     N.B.B.B.B.:   ! [.[.[.[.[.[.[.[.[.{.T.T.).[.[.[.[.)     b.B.B.B.B.w   @  . . . . . .A.L.I.u.u.=. . .",
" .C B  . .s.i.u.u. . .5     N.B.B.B.B.:   ! [.[.[.[.[.[.[.[.[.{.T.T.).[.[.[.[.)     b.B.B.B.B.w   @  . . . . .B H.G.C.u.u.=. . .",
" . .o.=.1.I.g.7.7. . .5     N.B.B.B.B.:   ! {.[.[.[.[.[.[.[.{.{.T.T.).[.[.[.[.)     b.B.B.B.B.w   @  . . . . .&.S.V.u.u.9.#. . .",
" . .,.V.I.I.w. . . . .5     N.B.B.B.B.:   ! [.[.[.[.[.[.[.[.{.{.T.T.).[.[.[.[.)     b.B.B.B.B.e   @  . . . . .u.u.u.u.u.o. . . .",
" . .s.I.I.u.=. . . . .5     O O O O O o o o * * * * * * * * * * ; ; ; * * * * o     X O O O O     +  . .N z z x 0.=. . . . . . .",
" . .s.P.p.u.t.,. . . .5               o o o o o o o o o o o o o o o o o o o o                     + P B n z z x S  . . . .m m  .",
" . .s.J.u.u.u.9.#. . .g 5 6 6 5 # o o u W W W W W W W W W W W W W W W W W W W W W W o   @ 6 6 6 5 6 H C N n n N n B  . . .m P  .",
" . .s.J.u.u.u.u.u. . . . . . . .d o o U.T.T.T.T.R.T.T.R.T.T.T.T.T.T.T.T.T.T.T.T.T.R.r o 3  . . . . .L C  . . . . .B  . . .m P  .",
" . .,.u.u.u.u.u.u.u.+. . . . .9.D o o U.T.T.T.T.T.T.T.T.T.T.T.T.T.T.T.T.T.T.T.T.T.T.r o 3  . . . . . . . . . . . . . . . .P P  .",
" . .,.u.u.u.u.u.u.u.q.&. . . .9.D     U.T.T.T.T.T.T.( - = = = = = = ~ T.T.T.R.T.T.T.=   9 9.9.9.,. . . . . . . .A.H.H.9.+.B B  .",
" . .@.,.u.u.u.u.u.u.u.$.N n N 0.D     Y.T.T.T.T.T.T.(               Q T.R.T.T.T.T.R.-   8 u.u.u.7. . . . . . .s.L.G.C.u.+. . . .",
" . . .+.7.u.u.u.u.u.u.>.A x O.e.D     Q ^ ^ ^ ^ ^ ^ Q     # 3 9     u ~ ^ ~ ^ ^ ~ ~ ;   8 u.u.u.q.#. . . ...#.J.J.Z.u.7.X. . . .",
" . . . . .u.u.u.u.u.u.u.6.x u.u.D                         f #.y.                        8 u.u.u.u.u.B  . .#.u.u.u.u.u. . . . . .",
" . . . . .u.u.u.u.u.u.u.6.x u.u.D                         3.u.y.                        1  .u.u.u.u.z z >.u.u.u.u.:. . . . . . .",
" . . . . .+.7.u.u.u.%.A S z S A G 2.g x z g z z z 4.n.n.4.e.u.u.2.2.G g z z h h z z g z x  .u.u.u.u.z x r.u.u.u.=... . . . . . .",
" . . . . . .@.:.=.=.M z x z z N X.=. . . . . . . .<.w.w.u.u.u.u.u.u.8.=. . .B m m  . . . . .:.&.*.$.z ;.0.u.u.u.o. . . . . . . .",
" . . . . . . . . . .n x z z x N B  . . . . . . . . . . .q.u.u.u.u.u.u.7. . . .C H  . . . . . . .N x z 0.u.u.u.u.+. . . . . . . .",
" . . . . . . . . . . . . . . . .C H  .L V  . . . . . . . .6.u.u.x 0.u.u.u. .B C H  . . . . . .n x x x x >.u.u. . . . . .P H P  .",
" . .V P L  .V P  . .c b  . . . . .C L C B  . .c v b  . . .X.+.+.z S A A A x N C H  . . .b c c b N B x x >.u.u. . . . .L H m B  .",
" . .C P H P L L  . .c c b  . . . . .V  . . . .b N  . . . . . . .N n z z x N B C H  . . .b l b B  . .N b O.-.&. . . . .V V B  . .",
" . . .B P P P V  . .v c b  . . . . . . . . . . . . . . . . . . . .N n n n  . .B P  . . .B c  . . . .B  .N N  . . . . . . . . . .",
" . . . . . . . . . . . . . . . . . . . . . . . . . . . . . . . . . . . . . . . . . . . . . . . . . . . . . . . . . . . . . . . ."
};
