/* XPM */
static char *_089dea9211b45dbcaba3e23176412d1tb7y5lc92ZEVZ246[] = {
/* columns rows colors chars-per-pixel */
"64 64 237 2 ",
"   c #050100",
".  c #0A0300",
"X  c #0E0A02",
"o  c #070508",
"O  c #110901",
"+  c #0B1403",
"@  c #081805",
"#  c #19170E",
"$  c #231D06",
"%  c #072807",
"&  c #0E2E0C",
"*  c #043409",
"=  c #043A08",
"-  c #232409",
";  c #2A2718",
":  c #2A3517",
">  c #37361B",
",  c #342F23",
"<  c #39342A",
"1  c #04440B",
"2  c #0B460B",
"3  c #034B0C",
"4  c #02540D",
"5  c #0A550E",
"6  c #015B0D",
"7  c #10530F",
"8  c #02461C",
"9  c #025D10",
"0  c #075815",
"q  c #165C15",
"w  c #274518",
"e  c #225517",
"r  c #345F19",
"t  c #006E00",
"y  c #00660D",
"u  c #006C0D",
"i  c #007300",
"p  c #00750D",
"a  c #007B0D",
"s  c #026311",
"d  c #086216",
"f  c #026C13",
"g  c #006B1C",
"h  c #176618",
"j  c #007414",
"k  c #007B16",
"l  c #00711C",
"z  c #0E731A",
"x  c #177917",
"c  c #167D16",
"v  c #226A18",
"b  c #37661A",
"n  c #2B7B1B",
"m  c #015322",
"M  c #005D26",
"N  c #1E5020",
"B  c #2D4925",
"V  c #37502C",
"C  c #006522",
"Z  c #1B6E23",
"A  c #357036",
"S  c #4C4E33",
"D  c #5C5738",
"F  c #675B37",
"G  c #645D34",
"H  c #655D3B",
"J  c #695E3D",
"K  c #4C782E",
"L  c #466739",
"P  c #56673D",
"I  c #6B6236",
"U  c #65613C",
"Y  c #68653A",
"T  c #6B633C",
"R  c #71663D",
"E  c #71693E",
"W  c #3E7F4C",
"Q  c #595947",
"!  c #5C584D",
"~  c #645D43",
"^  c #695F41",
"/  c #635D4B",
"(  c #685D50",
")  c #5C6746",
"_  c #4C7241",
"`  c #666344",
"'  c #6B6343",
"]  c #6C6945",
"[  c #64624B",
"{  c #6B644A",
"}  c #696A49",
"|  c #716543",
" . c #726A44",
".. c #736749",
"X. c #746A4B",
"o. c #65754C",
"O. c #76744F",
"+. c #6B6453",
"@. c #6A6654",
"#. c #736D54",
"$. c #7A7861",
"%. c #8A7D5A",
"&. c #857C67",
"*. c #897D63",
"=. c #927F65",
"-. c #008216",
";. c #0D8315",
":. c #0D8B16",
">. c #168F16",
",. c #158719",
"<. c #16941C",
"1. c #26881C",
"2. c #37831E",
"3. c #29971D",
"4. c #35892A",
"5. c #2B9C22",
"6. c #359922",
"7. c #2AA122",
"8. c #32A622",
"9. c #3AA726",
"0. c #32A12A",
"q. c #478725",
"w. c #4A8C24",
"e. c #4D9426",
"r. c #4A9A27",
"t. c #519C2A",
"y. c #4A8730",
"u. c #578A36",
"i. c #69903C",
"p. c #43AB27",
"a. c #54A42B",
"s. c #57AA2C",
"d. c #59AC2E",
"f. c #4BB22A",
"g. c #4BB82A",
"h. c #54B92E",
"j. c #5AAB31",
"k. c #4BB236",
"l. c #5FBB31",
"z. c #66BA36",
"x. c #5DC333",
"c. c #64C534",
"v. c #66CA35",
"b. c #72D03D",
"n. c #48894B",
"m. c #518F4E",
"M. c #579356",
"N. c #6F8F53",
"B. c #69875A",
"V. c #68955B",
"C. c #73A94C",
"Z. c #7DB95A",
"A. c #5E9760",
"S. c #798564",
"D. c #699564",
"F. c #71946C",
"G. c #789668",
"H. c #7FB065",
"J. c #65C044",
"K. c #76C649",
"L. c #7DD644",
"P. c #7ED449",
"I. c #8C8256",
"U. c #8C825C",
"Y. c #91845D",
"T. c #93885A",
"R. c #82B154",
"E. c #858464",
"W. c #8D8363",
"Q. c #878769",
"!. c #8D846B",
"~. c #928563",
"^. c #948A63",
"/. c #93856A",
"(. c #948A6C",
"). c #9A8A69",
"_. c #85986C",
"`. c #9C916B",
"'. c #8B8573",
"]. c #8B8675",
"[. c #928571",
"{. c #938B72",
"}. c #968C79",
"|. c #889975",
" X c #979877",
".X c #9D9B7C",
"XX c #A8996F",
"oX c #A29576",
"OX c #A59B74",
"+X c #AB9C75",
"@X c #A59C7C",
"#X c #AB9978",
"$X c #AB9D7B",
"%X c #86A96A",
"&X c #91A86C",
"*X c #86B665",
"=X c #95A677",
"-X c #8EB072",
";X c #ADA075",
":X c #ADA27C",
">X c #A8A77D",
",X c #B1A37B",
"<X c #B2A579",
"1X c #ACB47B",
"2X c #89DB4E",
"3X c #93C754",
"4X c #96DE5C",
"5X c #98E455",
"6X c #9BE556",
"7X c #A7D56C",
"8X c #AEEC66",
"9X c #B1F165",
"0X c #BBF66C",
"qX c #CAFE76",
"wX c #929184",
"eX c #9A9B81",
"rX c #A49C82",
"tX c #AA9D82",
"yX c #A79B88",
"uX c #B19E87",
"iX c #98A084",
"pX c #ACA382",
"aX c #A5A689",
"sX c #ACA38C",
"dX c #B2A483",
"fX c #B5A989",
"gX c #B1AF8B",
"hX c #C2AF82",
"jX c #CCBB8D",
"kX c #CDBD93",
"lX c #CBBC98",
"zX c #D0BF92",
"xX c #CFC08D",
"cX c #D2C294",
"vX c #D3C39A",
"bX c #D9C69C",
"nX c #D2C5A2",
/* pixels */
"-.-.-.-.-.-.-.-.-.-.-.-.-.-.-.-.-.-.-.-.-.-.-.-.-.-.-.-.-.-.-.-.-.-.-.-.-.-.-.-.-.-.-.-.-.-.-.-.-.-.-.-.-.-.-.-.-.-.-.-.-.-.-.-.",
"-.-.-.-.-.-.-.-.-.-.-.-.a i i i i i -.-.-.-.-.-.-.-.-.-.-.l g -.-.-.-.-.-.-.-.k C C k -.-.-.-.-.-.-.-.-.-.-.-.-.-.-.-.-.-.-.-.-.",
"-.-.-.-.-.-.-.-.-.8.:.-.-.p a a a a -.-.-.-.-.-.-.-.-.-.-.l C l -.-.-.-.-.-.-.k l l k -.-.-.-.-.k l -.-.-.-.-.-.k l l l k -.-.-.",
"-.-.-.k k -.-.-.-.v.<.-.-.-.-.-.-.-.-.-.-.-.-.0.0.0.0.-.-.l C C -.-.:.<.<.<.<.<.<.-.-.-.-.-.-.k l M -.-.-.-.-.-.g C C C k -.-.-.",
"-.-.-.k M -.-.-.-.v.<.-.-.-.-.-.-.-.-.-.-.-.-.qXqXqXqX-.-.-.-.-.-.-.8.v.v.v.v.v.v.-.-.-.-.-.-.C M M -.-.-.-.-.-.-.-.-.-.-.-.-.-.",
"-.-.l C -.-.-.<.v.v.<.-.-.-.M M g -.-.-.8.L.qXqXL.v.v.-.-.-.-.-.-.-.-.<.v.qX5Xv.v.v.<.-.-.-.M k -.-.-.-.-.-.-.v.v.v.v.-.-.-.-.-.",
"-.-.k l -.-.-.5.5Xv.<.-.k g M g l -.-.7.g.b.5X5Xk.8.8.-.-.-.k g -.-.-.:.8.qX9X2Xv.v.<.-.-.-.l -.-.-.-.-.<.8.8.v.v.v.v.8.8.<.-.-.",
"-.-.-.-.-.-.-.0.qXv.<.-.k C g k -.-.<.h.v.v.v.v.<.-.-.-.-.k l C -.-.-.-.-.9X0X9Xv.v.7.:.-.-.-.-.-.-.-.>.p.v.v.v.v.v.v.v.v.8.-.-.",
"-.-.-.-.-.-.-.5.qXv.<.-.-.-.-.-.-.-.v.v.v.v.v.v.<.-.-.-.-.g M M -.-.-.-.-.v.5X9Xv.v.v.8.-.-.-.-.-.-.-.g.v.v.v.v.v.v.v.v.v.8.-.-.",
"-.-.-.-.-.-.8.2XqXv.<.-.-.-.-.-.-.-.v.v.v.g.-.-.-.-.-.-.C M C -.-.-.-.-.-.-.8.v.v.v.v.8.-.-.-.-.-.-.-.g.v.v.v.v.v.v.v.qXqX5Xg.-.",
"-.-.-.-.-.-.x.0XqXv.h.g.9.-.-.-.-.-.v.v.v.g.-.-.-.-.-.C C C k -.-.-.-.-.-.-.:.8.v.v.v.x.9.-.-.-.-.-.g.c.v.v.v.v.v.2X9XqXqX0X2X-.",
"-.-.-.-.-.-.J.0X5Xv.v.v.g.-.-.-.-.-.v.v.v.g.-.-.-.-.-.l g k -.-.-.-.-.-.-.-.-.<.v.v.v.v.g.-.-.-.-.-.v.v.v.v.v.v.p.k.J.J.8X4Xk.-.",
"-.-.-.k -.<.J.5Xv.v.v.v.g.-.-.-.-.-.v.v.v.h.<.<.-.-.-.-.-.-.-.-.-.-.-.-.-.-.-.>.g.v.v.v.g.-.-.-.-.<.v.v.v.x.g.g.<.-.-.-.K.k.-.-.",
"-.-.l C -.v.v.v.v.v.v.v.g.-.-.-.-.-.v.v.v.v.v.v.<.-.-.-.-.-.-.-.-.-.-.-.-.-.-.-.-.v.v.v.g.-.-.-.<.v.v.v.v.g.-.-.k -.-.-.-.-.-.-.",
"-.-.l C -.v.v.v.v.v.v.v.g.-.-.-.-.-.v.v.v.v.v.qX0.-.-.-.-.8.2XqXv.v.v.v.v.-.-.-.-.v.v.v.g.-.-.g.v.v.v.v.0.-.-.-.-.-.-.-.-.-.-.-.",
"-.g C C -.<.p.v.v.v.v.v.g.-.-.-.-.-.v.v.v.L.9XqX0.-.-.-.-.8.L.qX9X9X2Xv.v.g.7.-.-.<.h.v.g.-.-.g.v.v.v.7.:.-.-.-.-.-.-.-.-.-.-.-.",
"-.C C g -.-.8.v.v.v.v.v.h.<.-.-.-.-.v.v.v.b.9X6X5.-.-.-.-.3.x.4XqXqX5Xv.v.v.8.-.-.-.g.v.g.-.-.g.v.v.v.<.-.-.-.-.-.-.-.-.-.-.-.-.",
"-.C g -.-.-.8.v.v.v.v.v.v.v.-.-.-.-.v.v.v.v.v.-.-.-.-.-.-.-.-.-.qXqX5Xv.v.v.8.-.-.-.g.v.g.-.-.g.v.v.v.<.-.-.-.-.-.-.-.-.-.-.-.-.",
"-.-.-.-.-.-.8.v.v.v.v.v.v.v.-.-.-.-.v.v.v.v.v.-.-.-.-.-.-.-.-.-.-.-.8.v.v.v.v.f.y y y y y -.v.v.v.v.-.-.-.0.qXqXL.8.-.-.i t i -.",
"-.-.-.-.-.-.:.7.v.v.v.v.v.v.-.-.>.g.v.v.v.h.<.-.g l -.-.a i a -.-.-.,.7.v.v.v.g.y y y y y u c h.v.v.-.-.-.:.0.qX0XP.g.-.a p i i ",
"-.-.-.-.-.-.-.:.8.v.v.v.v.v.-.-.<.v.v.v.g.7.-.-.C l -.-.a i i a -.-.-.<.v.v.f.1.y y y y y y y f.x.8.-.-.-.-.-.C.8X4Xc.6.;.p p u ",
"-.-.<.5.<.-.-.-.-.g.x.v.v.v.k -.<.v.v.v.8.-.-.-.g l -.-.-.a i i -.-.-.>.g.f.1.y y y y u u u y 8.9.-.-.-.-.-.-.k K.z.w.q.q 4 9 s ",
"-.-.J.9Xv.-.-.-.-.-.g.c.v.v.y a <.v.v.v.8.-.-.-.-.-.-.-.-.-.-.-.-.-.-.-.-.y y y y y y a -.-.y y p -.-.-.-.k j s b b w & & % * 1 ",
"-.4X5Xv.v.-.-.-.-.k k 3.r.6 6 y y y y k -.-.-.-.-.-.-.-.-.-.-.-.-.-.-.-.-.-.p y y -.-.-.-.-.-.-.-.-.-.k g 0 Z _ L } [ #.rXiX X X",
"-.4X0X6Xv.k j f f s s 0 5 1 3 3 4 6 6 p k -.-.C k -.-.C C l -.-.-.-.-.-.-.-.-.k k k -.-.-.k k p x 6.g g 0 * A [ } ~ { O.+X:XdX$X",
"k 4X6XC.r.0 3 1 = = * * = 1 = = = 3 4 6 s f g M j -.-.l C l -.-.-.-.-.-.-.l g l g j f s s 4 v e e r = = % @ Q [ } ' D | <X:X+X,X",
"y C.i.b w G.|.|..X|.) P P P P P L P L L A 1 8 8 s j k -.C l -.-.-.-.-.-.k M M m 8 Z A L L L o.o.] P ) o.Q ! + X . ~ X.X.yXuXuXsX",
"1 e w - + sXeXrX@X>XH ' ] Y Y U } } P ) P % * 2 1 3 0 f j k -.-.-.-.k j f y 4 1 * V P ) } { ' H ] Y } ) @.@.X . . { { X.yXuXyXyX",
"w S S S S @XfXtX@X:XG T I G T Y Y U U Y ` > > : B : : q 0 C f j p.r.n q e B B w : S } ` ~ #.~ < > > < , < <   . . { `  .%.%.XX#X",
"S.Q.{.>XpXtX$X+X+X:XF R E R T T ' Y ' T U ` ` U [ { ) [ B & 1 1 b r m.o.! } [ D X.' H #.~ ~ ~ O       .   o       } ' U F R =.%.",
"W.Q.W.>XpX,XOX,XdX+X| J F ' ^ ^ ' J { ' U ] U ] ' ' } ~ > + @ @ @ # [ } ` ` { ] D ] { ~ +.+.+.  . X     o   o     [ ` { T ' %.).",
"U.`.I.^.Y.T R J F X.J | ' ' ~ { { ' J ' T  .G T T Y ' ` ~ { @.~ } } ` ` ' ` T T T ' ~ ( O .   }.'.].&.].wXwX+ . . [ ~ ' ' T R J ",
"W.).~.U.Y.I F R J ' | J X.' T T ^ | ' ' ' | R T Y Y I U T ' ' ` U U { X.~ | | ^ Y D #.[ o . . =.[././.!.!.}.O . X / / +.{ ' T T ",
"~.~.U.^.T.R R T | J | J T F T  .J ^ R ' J F F J Y I I T T T T T ] T J J | ^ F F Y ` ) @..   . [.&./.W./././.$     @.+.( ~ { F ] ",
"~.~.`.vXcXkXcXlXlXnXJ | | T I G T | T | T #.' J T Y T T T T ' T I Y Y T R R R  .` -     }.].!.W.~.dX$XtXtXsX[.}.!./ @.S X X ` ' ",
"~.Y.`.lXkXcXcXcXlXbXG J | G R E E F F J ' F ^ ..' ' T T T T T T Y Y I E F R I I U :     ].Q.W.^.Y.:X$XdXtXrX[.=./.{ { D . . } [ ",
"vXlXkXbXbXzXzXcXlXlXdX$X;X' T G I I T ..{ { ^ { ' ' ' ' T T T T I E I I T ^ J ' ) # o   {.W.).$X$XpXXX+X,X$XoX=.!.*.`.U.J @.    ",
"lXvXvXjXcXzXzXxXbXjX$X$X:XF T E T E ` ' ^ { { ^ ' ^ ' T ' T T T U ] Y G #.{ ~ } @.; o   E.~.Y.XXtX$X<X<X<XOX[.=.{.W.U.^.D / . o ",
"kXcXcXkXcXzXzXzXjXbX;X,X+X| T T ' ' ` ` ( ^ { | ' ^ J R ' T T ' ] Y I ' ( +.+./ ! ;     }.W.).uXdX+X+X+X+X$X).=.~.~.Y.O.{ +.  o ",
"lXzXcXkXzXcXcXzXvXjX<X+X:X$XpX(.` [ . O O {.*...^ T R J T T T ' ` U ' {     . o       . rX;X#XuX$X$X:X<X+X#XoX=.Y.).T.U.{.].o o ",
"cXkXzXzXzXzXzXzXcXzX<X<X+X@XpX{.+.+.o . . =.&.| I I R I I T J { { { J ` .   O o   o     pX>XtXtX$X+X<X+X<X#X).=.).Y.T.T.Q.].o o ",
"XXXX<XcXbXzXzXzXhX<XXX$XpX`./.#.; # ! ( ~ lXfX$X;X;X<X<X`.).{.$ - - (.(.$.#.+.! ! ;   . .XOX,X:X,X,X<XXX<XuX=.).%.~.I.^.W.!.  o ",
"~.Y.`.jXlXzXzXvXXX<X;X:XpX!.!.! O . wX=.&.nXzXcXcXjXcXzXfXpXgX.     pX;X@XpXrX[.].< o   pX;X;X+X#XuX;X+X;X,X/./.).).).%.(.[.  o ",
"T.~.).vXnXlXbXzX:X+XpX:XrX!.}.Q   O &.=./.nXzXcXxXxXcXzXgXdXyXX . . pX>XOX:X:X(.'.; .   gX:X<X+X,X$X#X<X,X,X[./.=.*.Y.U.W.[.. . ",
":X$X,X,X#X#X,X#XT.).U./.!.  o < }.[.uXfX#XlXkXcXbXzXXX+XdXsXrX.   . .X+XT.T.T.Y.'.].&.wX' F F :XdXW.~.Y.U.W.~././.~./..X/.&.@.( ",
":X@X,X<XuX#X:X,X~.~.U.{.'.+ @ ; '.!.tXuX#XlXzXzXhXbX;X,XrXyXyX  . . sX:XI.I.%.)./.&.{.E.' U ..dX$X%.~./.(.~.(.W.W.(.!.&.[.*.{ R ",
"@XpX`.1XgX;XuX$XW.).*.Q.S.% % : &.Q.:X:X,XzXbXzXbXzX+X$XtXsXsXo   . eXrX).T.~.)./.!.{.Q.` [ ~ yXdX(./.W.W.Q.Q.[.E.Q.S.S.Q./.F | ",
"@X=X_.i.K =XOXdX@XtXE.Q.B.3 4 w >X;X+X+X,X#X+X,X+X#X:XdX}.[.&.X @ @ ].}.Y.Y.).=.~./.E.!.@ % @ E./.W.~.^.^.~.| ' ` & 2 2 P { dX@X",
"D.V.H.C.q.*X&X&XG._.S.Q.B.3 3 w OX;X;X:X;X+X+X$X$X$X$X:X`././.+ @ @ '.[./.~.~.W.W.(.W.W.@ % % S.W.~.U.^.~.~.| J U * 3 = o./ |.F.",
"s s K 7X*Xq.t.r.e.3 |.iXG.B.N.Q.gXoX$XoX:X:X,X+X,X,X$X#XfXtXoXQ.S.{.&.=.W././.~.W.X...` $.S.S.eXpXOX:X>XOX$X$XdXoX XG. XeX|.& 0 ",
"-.k 2.%X*Xa.c.c.c.t.V.|.=XQ.&.(.:XpXfXuX@X@XtXpX$X#XdX$XdX$X$X(.W.{.{./.!./.W.W.~.O.~ ' }.S._.eX XaX XtXgXtX@X@XpX$XfXsXyXF.8 k ",
"-.k 4.Z.Z.d.c.l.s.q.H.V.F.B.E.|.=X&X&X&X=X.X@X_.Q.|. XdXpXOXdXU.(.*.(.!./.(.U.S.B.I.' ` =XN.V.%X%XD.G._. X X XG.=XaXeX.X|.D.3 s ",
"-.-.,.6.d.l.c.s.Z.Z.q.n 1 G._.B.n t.t.e.e G._.1 4 1 _.@X$XdXdX:X,X`.>X@X#XtX_.1 3 o.aXgXE a.t.r.2.s s 3 G.G.7 y.i.gXaX|.5 4 m.M.",
"-.-.-.>.g.v.v.d.Z.Z.s.r.h n.N.u.s.l.a.t.v D.M.4 s 4 D._. X.X XgX&X1X>X>X=XG.M.0 6 A V.H.K t.s.l.h.<.k u m.M.x 8X3X*X-XC.c f n.A.",
"-.-.-.-.-.v.v.l.j.j.z.v.p.5 t.s.l.a.C.G.V.5 0 n.o.m.6 5 L aXiXb e.b =X=X2 d 0 _ n.v 0 5 M.C.C.s.v.v.k k l x l.c.c.d.a.d j k j f ",
"-.-.-.-.-.v.v.v.v.v.c.v.p.y c.c.c.a.-X|.D.8 8 D.wXD.t.s.u.=X-Xw.c.r.G.F.s k s A.D.h j y D.|.*Xa.v.v.y y 6.c.c.v.v.6.k k -.-.-.-.",
"-.-.-.-.-.<.p.v.v.v.3.c x y c c 3.s.M.M.n.s s m.D.*XC.C.i.%X*Xw.t.w.V.n.j -.s W n.z k g n.M.R.d.v.v.y y 6.v.v.v.7.:.-.-.-.-.-.-.",
"-.-.-.-.-.-.<.8.8.0.z y y y y p ;.7.p f l k k f s Z %X-Xm.e.q.*XR.*X2.1.k -.j g 9 j -.k j f 3.5.8.6.y 1.f.v.v.v.<.-.-.-.-.-.-.-.",
"-.-.-.-.-.-.-.-.-.-.u y y y y k -.-.-.-.-.-.-.-.-.f D.D.t.d.a.*X-XZ.a.g.-.-.k k C -.-.-.-.-.-.-.j y y f.v.v.v.v.<.-.-.-.-.-.-.-.",
"-.-.-.-.-.-.-.-.-.-.-.-.-.-.-.-.l C -.C l -.-.-.-.f 4.n.Z 6.d.C._ C.h.v.v.-.-.l M -.-.-.-.-.-.f y y y y 6.v.v.-.-.-.-.-.C M g -.",
"-.-.k C C -.l l -.-.p a -.-.-.-.-.k C l k -.-.i i p j f p :.>.c 4 h x ,.,.u p k M -.-.-.a i i a k k y y 6.v.v.-.-.-.-.C M g k -.",
"-.-.k g M l C C -.-.i i a -.-.-.-.-.g k -.-.-.p a a -.-.-.-.-.-.p y y y y p k j M -.-.-.a t a a -.-.p p ,.6.8.-.-.-.-.l l j -.-.",
"-.-.-.k C C C g -.-.p i p -.-.-.-.-.-.-.-.-.-.-.-.-.-.-.-.-.-.-.-.p u u u -.-.k C -.-.-.-.i -.-.-.-.-.-.a p -.-.-.-.-.-.-.-.-.-.",
"-.-.-.-.-.-.-.-.-.-.-.-.-.-.-.-.-.-.-.-.-.-.-.-.-.-.-.-.-.-.-.-.-.-.-.-.-.-.-.-.-.-.-.-.-.-.-.-.-.-.-.-.-.-.-.-.-.-.-.-.-.-.-.-."
};
