/* XPM */
static char *floor1677589327[] = {
/* columns rows colors chars-per-pixel */
"64 64 115 2 ",
"   c #006F01",
".  c #00660F",
"X  c #00690F",
"o  c #007305",
"O  c #00760A",
"+  c #007A0C",
"@  c #026C10",
"#  c #096E12",
"$  c #006E1D",
"%  c #007411",
"&  c #0C7313",
"*  c #007D14",
"=  c #097F14",
"-  c #00741B",
";  c #007918",
":  c #157A17",
">  c #197F18",
",  c #005F26",
"<  c #006423",
"1  c #006920",
"2  c #008213",
"3  c #0B8516",
"4  c #0C8A17",
"5  c #0E8B18",
"6  c #1C831A",
"7  c #128D1A",
"8  c #1E881B",
"9  c #16911B",
"0  c #1B951C",
"q  c #1E981D",
"w  c #258A1C",
"e  c #24931E",
"r  c #249B1F",
"t  c #1D9421",
"y  c #2D9420",
"u  c #259C20",
"i  c #2A9D25",
"p  c #339722",
"a  c #349B22",
"s  c #399E24",
"d  c #2DA222",
"f  c #33A624",
"g  c #3DA226",
"h  c #37A826",
"j  c #39AA26",
"k  c #33A22C",
"l  c #3AA52F",
"z  c #3CAB29",
"x  c #3BA630",
"c  c #42A628",
"v  c #41AE28",
"b  c #4AAE2A",
"n  c #42B129",
"m  c #4AB52B",
"M  c #4EB92D",
"N  c #51B52D",
"B  c #52BC2E",
"V  c #44AC33",
"C  c #49AE36",
"Z  c #4CB335",
"A  c #4FB831",
"S  c #4BB038",
"D  c #52BB30",
"F  c #59BE30",
"G  c #57B93C",
"H  c #59B93E",
"J  c #57C030",
"K  c #5BC231",
"L  c #5EC03A",
"P  c #61C633",
"I  c #66CA35",
"U  c #68CC36",
"Y  c #68C73D",
"T  c #66C839",
"R  c #6CCD3A",
"E  c #70CF3C",
"W  c #73D13D",
"Q  c #5EBC41",
"!  c #61BE42",
"~  c #67C145",
"^  c #6AC347",
"/  c #6FC74A",
"(  c #75D042",
")  c #7CD544",
"_  c #7ED14D",
"`  c #7DCF50",
"'  c #82D947",
"]  c #85DA49",
"[  c #8BDD4D",
"{  c #83D352",
"}  c #89D755",
"|  c #87D851",
" . c #8FDE52",
".. c #93DC5B",
"X. c #93E253",
"o. c #9AE556",
"O. c #9CE55A",
"+. c #9DE858",
"@. c #A0E65C",
"#. c #A4EA5E",
"$. c #A8ED5F",
"%. c #9EE261",
"&. c #A4E762",
"*. c #A6E962",
"=. c #ABEC65",
"-. c #B1EE6A",
";. c #B2F266",
":. c #B5F369",
">. c #BBF66D",
",. c #BFF86F",
"<. c #BFF671",
"1. c #C0F96F",
"2. c #C3FA72",
"3. c #C9FD75",
"4. c #CEFF79",
/* pixels */
"2 2 2 2 2 2 2 2 2 2 2 2 2 2 2 2 2 2 2 2 2 2 2 2 2 2 2 2 2 2 2 2 2 2 2 2 2 2 2 2 2 * 2 2 2 2 2 2 2 2 2 2 2 2 2 2 2 2 2 2 2 2 2 2 ",
"2 2 2 2 2 2 2 2 2 2 2 2 + O o O o O 2 2 2 2 2 2 2 2 2 2 2 - $ 2 2 2 2 2 2 2 2 ; 1 < ; 2 2 2 2 2 2 2 2 2 2 2 2 2 2 2 2 * 2 2 2 2 ",
"2 2 2 2 2 2 2 2 3 d 5 2 2 + O O O O 2 2 2 2 2 * 2 2 2 2 2 $ < - 2 2 2 2 2 2 2 * $ - * 2 2 2 2 2 * $ 2 2 2 2 2 2 - $ $ $ * 2 2 2 ",
"2 2 2 * ; 2 2 2 4 J q 2 2 2 2 2 2 2 2 2 2 2 3 f l l k 3 2 - < 1 2 2 5 t 0 0 0 q 0 2 2 2 2 2 2 * $ < * 2 2 2 2 * - 1 1 1 ; 2 2 2 ",
"2 2 2 - 1 * 2 2 9 J 0 2 2 2 2 * * 2 2 2 3 5 i ;.>.>.&.9 2 2 2 2 2 2 d K I R R I K 9 2 2 2 2 2 1 < < * 2 2 2 2 4 4 5 4 2 2 2 2 2 ",
"2 2 - 1 * 2 2 0 J I 0 2 2 2 < < $ 2 2 * i ( :.3.[ W I 4 2 2 2 2 2 2 3 u W :.X.P I K 0 2 2 * < - * * 2 2 2 2 5 M J K M 4 2 2 2 2 ",
"2 2 ; - 2 2 2 i X.U 0 2 ; $ , $ ; 2 2 r M W o.X.B f d 3 2 2 * $ 2 2 2 5 n >.;.] I I 0 2 2 2 ; * 2 2 2 2 0 f j P U U P j f 0 2 2 ",
"2 2 2 2 2 2 * x >.W 0 * ; < $ ; 2 3 0 B U I I I 0 2 + 2 2 * $ < * 2 2 2 7 O.1.;.I I f 5 2 2 2 2 2 2 2 t v U U I I I I I U f * 2 ",
"2 2 2 2 2 2 2 V >.E 0 2 2 2 2 2 * 4 J I I I J J 0 2 2 2 2 1 , 1 * 2 2 2 4 M  .$.U I I f 2 2 2 2 2 2 2 m I I I I I I U W W z 2 2 ",
"2 2 2 2 2 2 d ) >.E 0 2 2 2 2 2 2 5 J U I M 5 4 2 2 2 2 1 , < * 2 2 2 2 2 3 z E I I U f 2 2 2 2 2 2 3 M U I I I I I W ;.1.X.z 3 ",
"2 2 2 2 2 2 G >.1.W B m f 2 2 2 2 5 K I U m 2 2 2 2 * 1 < 1 * 2 2 2 2 2 2 2 4 f I I I J f 2 2 2 2 4 v K I I I I I  .;.3.4.1._ 2 ",
"2 2 2 2 2 2 ~ 2.X.U I U M 2 2 2 2 5 J U U m 2 2 2 2 * - $ ; 2 2 2 2 2 2 2 2 2 0 I I I U M 2 2 2 2 4 K I I U U U v Z ^ ~ ;.%.Z 2 ",
"2 2 * * 2 0 Y o.I I I U m 2 2 2 2 4 K I I B 0 0 4 2 2 2 2 2 2 2 2 2 2 2 2 2 2 9 M P I U m 2 2 2 3 r K I I K M n 9 2 2 2 ^ S * 2 ",
"2 2 $ 1 5 J I I I I I U m 2 2 2 2 4 J I I I I R t 2 2 2 2 3 7 9 5 5 5 5 4 2 2 2 7 J I U m 2 2 2 r P I I P v 3 2 2 2 2 2 2 2 2 2 ",
"2 2 $ 1 5 J I I I I I U m 2 2 2 2 5 K I I I E ;.k 2 2 2 2 d ( *.T K K K B 5 2 * 4 J I U m 2 2 n P I I I f 4 2 2 2 2 2 2 2 2 2 2 ",
"* - , < 2 0 n I I I I U m 2 2 2 2 5 K I I ) ;.3.x 2 2 2 2 f ] 3.-.=.[ I P M r 2 2 q B U m 2 2 M U I I f 5 2 2 2 2 2 2 2 2 2 2 2 ",
"2 1 < $ * 2 f I I I I U B q 2 2 2 5 J U I ) $...i * 2 2 2 r L ..3.4.o.I I U f 2 2 2 M U M 2 2 m I I I q 2 2 2 * 2 2 2 2 2 2 2 2 ",
"* $ - 2 2 2 f I I I I I I J 5 2 2 4 J U U I J 7 2 2 2 2 2 2 2 0 %.-.[ I I I j 3 2 * v F v 2 5 M U I J 0 2 3 7 0 5 3 2 2 2 2 2 2 ",
"2 * * 2 2 2 f I I I I I I K 4 2 2 5 J I I I J 5 2 2 2 2 2 2 2 2 7 t z I I I P c X X # & & 4 B P U K 9 2 * k =.-.( d 2 2 O   O 2 ",
"2 2 2 2 2 2 5 f I I I I I K 4 2 9 m I I I M q 3 $ - 2 2 O o O 2 2 * 5 f I I I b @ . . . X @ 6 N U K 5 2 * 7 S <.>.) z 4 + o   o ",
"2 2 2 2 2 2 2 5 j P I U I K 5 2 q I I U M r 2 2 1 $ * 2 + O o + 2 2 2 0 I I N w . . . . . . . b J f 3 2 2 2 5 H ;.+.K j 5 + O O ",
"2 * 0 k 0 2 2 2 3 n K U I F 3 2 0 I U U f 2 2 2 $ ; 2 2 2 O o O * 2 2 9 m m w . . . . @ % X @ p f 2 2 2 2 2 2 2 _  .I I q 2 2 2 ",
"2 5 / #.J 4 2 2 2 2 v P P N & % 0 F B K d 2 2 2 2 2 2 2 2 2 2 2 2 2 2 2 * @ X . . X @ % 2 * X X O 2 2 2 2 * 2 2 n I I I q 2 2 2 ",
"2 { X.W J 5 * 2 2 2 3 j m & . . X & & 3 3 2 2 2 2 2 2 2 2 2 2 2 2 2 2 2 2 * O . X * * 2 2 2 2 * * 2 2 2 - 1 2 2 3 j I P q 2 2 2 ",
"3 ..1.o.K 4 2 2 2 2 2 3 : . . . . . . % 2 2 2 1 ; 2 2 1 < - 2 2 2 2 2 2 2 2 * * ; 2 2 2 2 2 2 2 9 v 3 2 $ < 2 2 2 f U I 8 % 2 2 ",
"2 ..:.[ K 4 2 2 2 2 * * % O % % O % % * 2 * $ , ; 2 2 - < 1 2 2 2 2 2 2 2 - $ $ - 2 2 2 2 3 d f v J 4 2 $ $ 2 2 + 6 a p & % 2 2 ",
"3 } X.I K 9 3 2 2 2 2 * 2 2 2 2 2 2 2 2 2 ; < < ; 2 2 2 1 - 2 2 2 2 2 2 * 1 < < < * 2 2 3 u T R U J 4 2 $ $ 2 2 @ . . . . % 2 2 ",
"2 B U I I K d 2 2 2 O o O 2 2 2 2 2 2 2 2 2 ; 2 2 2 2 2 * 2 2 2 2 2 2 2 2 * * ; 2 2 2 + k =.>.) I K 5 * $ < 2 2 % . . . @ % 2 2 ",
"2 9 n I I U f 2 2 2 + + 2 2 2 * 2 2 2 2 2 2 2 2 2 2 2 2 2 2 2 4 v M r 2 2 2 2 2 2 2 2 2 l 3.3.] I K 4 2 ; ; 2 2 * O * * * * 2 2 ",
"2 2 0 n I I M r 2 2 2 2 2 3 d G G f f f 0 * 2 2 - 1 - 1 * 2 2 5 K I M f d 2 2 2 2 2 2 2 l 1.+.W J d 4 2 2 2 3 d f 0 2 2 - ; 2 2 ",
"2 2 2 0 I I I B 0 2 * ; 3 d ) >.>.] ] W v q 0 2 - < < , ; 2 2 4 v K I W ) V 0 * 2 2 2 2 h @.R U m 2 2 2 2 4 u K B r * ; 1 $ 2 2 ",
"2 2 + 0 K I I I J 4 $ $ 9 P &.;.-.;.2.' P I J 9 2 2 2 < ; 2 2 2 2 M I ) >.3./ 7 2 2 2 3 u I U K n 2 2 2 2 0 I I r 2 ; < , - 2 2 ",
"2 o + 2 9 K U U F 5 1 - 2 5 7 0 9 i -.] I I I K 0 2 2 2 2 2 2 2 2 m I U ) ,.2.` 3 2 2 d K I I r 4 2 2 2 2 r I I 0 2 * < - 2 2 2 ",
"2 o o O 3 K U U K 4 < $ 2 2 * 2 2 3 k F U I I I B r * 2 2 2 2 2 2 9 n U U ' ] L 2 2 2 f U I I 0 * 2 2 2 C O.#.R 0 2 2 ; * 2 2 2 ",
"2 + O O 5 J I I K 4 - * 2 2 2 2 2 2 2 r f n I I I M i 3 - - $ - 2 2 0 f j P I B d 2 * f U I j 5 2 2 2 C %.1. .z 5 2 2 2 2 2 2 2 ",
"2 2 2 2 4 K U I K 4 2 2 2 2 2 2 2 2 2 2 2 9 m I I U K 5 $ < < , * 2 * 2 4 v J U P r 3 e m c = % * + 0 | ;.o.K 4 2 2 2 2 2 2 * 2 ",
"2 2 2 2 4 F P F M 3 * 2 2 2 2 * * * * 2 2 2 5 M I I K 9 2 2 ; 1 * 2 2 2 2 2 f U I I 6 . X X . . . & F U U U K 4 2 2 2 4 3 O o 2 ",
"2 2 2 * & P s & & @ * 2 2 2 2 $ < , < ; 2 2 2 5 M I I J 0 2 * * 2 2 2 2 2 2 f U P I 6 . . . . . . # F I I U K 4 2 2 4 M 9 O o 2 ",
"2 2 2 2 = e > . X % * 2 2 2 2 ; - 1 , - 2 2 2 2 M I I I 0 9 f f d 4 2 2 2 2 0 v I I w . . . . . & s I I M h d 3 2 2 4 J q 2 + 2 ",
"2 ; * 2 * . . % @ 2 2 + + 2 2 2 2 2 1 ; 2 2 2 2 m I I I f v E ] ] j 4 2 2 2 2 9 b c : X @ . . : p I I I f + 2 2 2 4 r K 0 2 2 2 ",
"2 $ $ 2 2 X O 2 2 2 2 O o o 2 2 2 2 2 2 2 2 2 2 m U I I R W [ 2.3.( d 2 2 2 2 ; @ X . % * . . g K I K K d 2 2 2 2 j W I u 3 2 2 ",
"* $ $ 2 2 * 2 2 2 2 2 2 2 2 2 2 2 2 2 2 2 2 2 2 m I I U @.>.,.3.1.V 3 2 2 2 2 2 * X . % * . . # w J 0 5 2 2 2 2 + Y :.E K d 2 2 ",
"* 1 $ 2 2 * r M v 3 2 2 2 3 z M h 2 2 2 2 2 2 2 7 n I I ) H l x l 7 2 2 2 2 ; 1 * * * * * * X . & 0 2 2 2 2 2 2 ~ ;.2.R I f 2 2 ",
"2 - ; * 3 Q Y U K 5 2 2 2 3 d J Y ~ ! t 2 2 * * % s R U I f O O + 2 ; $ - 2 $ < - 2 2 2 2 2 % % + 2 2 2 2 2 2 3 ..:.X.R U h 2 2 ",
"2 2 7 u C <. .n n 4 2 2 2 2 2 f Y ;.2.x * 2 * X . w N P U p . X * * $ , 1 * - < $ - - * 2 2 2 2 2 2 2 2 2 2 3 0 [ [ I I B r 2 2 ",
"2 2 h [ 2.2.! 2 2 2 2 2 2 2 2 2 0 W ,.S 4 2 2 X . . # F P e . X * $ , $ * 2 2 2 ; < < - 2 2 2 * * * 2 2 * * 3 m P P J J 0 2 2 2 ",
"2 2 H 2.1.) j 2 2 2 2 2 2 2 2 2 0 W >.>.H + 2 * @ . & F w # X 2 2 * * * 2 2 2 2 2 * * 2 2 2 2 $ < < * 2 ; . @ & b j 5 4 2 2 2 2 ",
"2 + ~ >.' U F f 2 2 2 2 2 2 2 2 0 I ' >.^ 2 2 2 * O . > # X * 2 2 2 2 2 7 { S 2 2 2 2 2 2 2 2 ; 1 < < * % . . . : 3 2 2 2 - $ 2 ",
"2 2 ~ ;.I I U D 0 3 2 2 2 2 2 2 0 P I +.H * 2 2 2 * X . X + 2 2 2 2 5 q f #.H * 2 2 2 2 2 2 2 2 ; < < - * @ @ @ @ * 2 2 2 1 1 2 ",
"2 2 ! #.U I I I J 9 2 2 2 2 2 3 u I I U f 2 2 2 * * * X * 2 2 2 2 4 j I P K d 2 2 4 5 5 4 2 2 2 2 * < ; 2 2 2 2 * 2 2 2 2 - 1 2 ",
"2 2 j W I I I I I K 0 2 2 2 2 v P I I U f 2 2 2 $ , 1 ; * 2 2 2 2 n K I K 9 3 2 4 A K K n 2 2 2 2 2 2 2 2 2 2 2 2 3 2 2 2 $ 1 * ",
"2 2 h I I I I I I I B r 2 2 2 m U I I U f 2 2 2 < $ ; 2 2 2 2 7 { W I J 9 3 2 2 5 K +.;.X.M m m h 2 2 2 2 2 2 2 ^ ..} M 9 * ; 2 ",
"2 2 0 n I I I I I I U a % % % m I I I U f 2 2 2 - ; 2 2 2 2 0 ^ X.W U m 2 2 2 2 3 d G %.;.R I U m 2 2 2 2 2 5 Q ;.:.X.R 0 2 2 2 ",
"2 2 + 9 m I I I I I U c : X 6 N I I I U f 2 2 2 2 * 2 2 2 2 k #.R I I M 2 2 2 2 2 2 2 C | I I U B t 2 2 2 3 d @.;.[ P m 9 2 2 2 ",
"2 2 2 2 5 K I I I I I I b & F I I I I P d * ; 2 2 3 4 5 5 4 r I I I P n 2 2 2 2 2 2 2 2 0 J I I I J 4 * 3 r I I U I M 4 2 2 2 2 ",
"2 2 2 2 4 J I I I I I U c & F I I I P u - < 1 * 2 d K K J J P I I I j 3 2 2 2 2 2 2 2 2 3 9 K I I K & . e P I I I h 4 2 2 2 2 2 ",
"2 2 2 2 3 9 n U I U a 6 : @ > 6 p K i 3 ; ; ; 2 2 G ;.;.) I U I I I f * 2 2 - $ 2 2 2 2 * 5 K U U F & . a I I I f 5 2 2 2 2 2 2 ",
"2 2 2 2 2 2 0 f f f & . . X . @ 3 d 3 2 2 2 2 2 2 k ^ ~ I I I I I I M r 2 2 ; $ - 2 2 2 2 3 d f f y # w m I I I 0 2 2 2 2 2 2 2 ",
"2 2 2 2 2 2 2 * 2 2 X X X X X * 2 * 2 * 2 2 2 2 2 2 2 2 v P I I K P I M 4 2 2 ; < ; 2 2 2 2 2 * % . . c P I I K 0 2 2 2 * * * 2 ",
"2 2 2 2 2 2 2 * 2 2 2 + * * * 2 - 1 * 1 - 2 2 2 2 2 2 2 3 j I F 6 m I P M 4 2 ; < * 2 2 2 2 2 % . . . # s I K 9 2 2 2 2 1 < 1 2 ",
"2 2 ; $ $ ; - $ 2 2 + + 2 2 2 2 2 ; $ - * 2 2 O o + 2 2 2 5 0 0 @ : 6 6 6 @ * - < ; 2 2 + O o + * * . . a U K 4 2 2 2 1 , 1 * 2 ",
"2 2 - $ , $ < 1 2 2 o o + 2 2 2 2 2 $ * 2 2 2 O O + 2 2 2 2 2 * % X . . . O * - < * 2 2 +   O * 2 * % O 6 a d 3 2 2 2 - $ ; 2 2 ",
"2 2 * ; $ 1 $ - 2 2 O o O 2 2 2 2 2 2 2 2 2 2 2 2 2 2 2 2 2 2 2 2 % @ @ O 2 2 ; $ 2 2 2 + O 2 2 2 2 * 2 ; % * 2 2 2 2 2 2 2 2 2 ",
"2 2 2 2 2 * * 2 2 2 2 2 2 2 2 2 2 2 2 2 2 2 2 2 2 2 2 2 2 2 2 2 2 2 2 2 * 2 2 2 2 2 2 2 2 2 2 2 2 2 2 2 2 2 2 2 2 2 2 2 2 2 2 2 "
};
