/* XPM */
static char *result[] = {
/* columns rows colors chars-per-pixel */
"64 64 170 2 ",
"   c black",
".  c #000A03",
"X  c #001A04",
"o  c #041B0A",
"O  c #19180E",
"+  c #211302",
"@  c #2B1602",
"#  c #321702",
"$  c #311D02",
"%  c #241E15",
"&  c #002706",
"*  c #002906",
"=  c #002209",
"-  c #003408",
";  c #003007",
":  c #1F3D10",
">  c #12340C",
",  c #292218",
"<  c #2C2112",
"1  c #332A1E",
"2  c #3B2303",
"3  c #4C2303",
"4  c #4F351C",
"5  c #422D21",
"6  c #583C2C",
"7  c #004E0B",
"8  c #10400D",
"9  c #005B0E",
"0  c #00441B",
"q  c #004917",
"w  c #165715",
"e  c #295115",
"r  c #006E00",
"t  c #00660F",
"y  c #00680F",
"u  c #007305",
"i  c #007709",
"p  c #007B0D",
"a  c #006D10",
"s  c #006D1F",
"d  c #0B6A12",
"f  c #007511",
"g  c #007C14",
"h  c #00731B",
"j  c #007918",
"k  c #0B7714",
"l  c #117615",
"z  c #147B17",
"x  c #2B731B",
"c  c #005D27",
"v  c #374920",
"b  c #006423",
"n  c #006821",
"m  c #3D7920",
"M  c #4D402C",
"N  c #4C522C",
"B  c #66553B",
"V  c #7A5237",
"C  c #4C6B28",
"Z  c #834D06",
"A  c #895107",
"S  c #B15708",
"D  c #A36008",
"F  c #BE6609",
"G  c #CA5C08",
"H  c #D86B09",
"J  c #CE6909",
"K  c #E26E09",
"L  c #EA6F0A",
"P  c #EE700A",
"I  c #FC730A",
"U  c #9A694D",
"Y  c #8F7F54",
"T  c #997F59",
"R  c #9F7252",
"E  c #A37857",
"W  c #008213",
"Q  c #0A8A17",
"!  c #0D8B18",
"~  c #0C8316",
"^  c #1A8419",
"/  c #118F19",
"(  c #14901A",
")  c #19941B",
"_  c #1F981D",
"`  c #298E1E",
"'  c #238D1D",
"]  c #249B1F",
"[  c #29941F",
"{  c #299F21",
"}  c #299523",
"|  c #349C23",
" . c #2CA122",
".. c #32A624",
"X. c #3DA226",
"o. c #3CAD27",
"O. c #32A12A",
"+. c #3AA72D",
"@. c #3DA731",
"#. c #478D25",
"$. c #479427",
"%. c #5B9833",
"&. c #47AC2A",
"*. c #52A22B",
"=. c #47B42B",
"-. c #4EB92D",
";. c #49B62B",
":. c #52B62D",
">. c #52BC2E",
",. c #41AB30",
"<. c #56BE30",
"1. c #51B43B",
"2. c #58BC30",
"3. c #67A43E",
"4. c #5AC231",
"5. c #61C634",
"6. c #66CA35",
"7. c #6ECB3F",
"8. c #74D13E",
"9. c #61BE43",
"0. c #6DC647",
"q. c #79CC4E",
"w. c #72CA49",
"e. c #7AD443",
"r. c #7ED24C",
"t. c #AC8B61",
"y. c #B39468",
"u. c #BE8C65",
"i. c #8DB253",
"p. c #E28F5A",
"a. c #DAA65C",
"s. c #DB966E",
"d. c #CCAA76",
"f. c #D6A875",
"g. c #E2A276",
"h. c #E6A979",
"j. c #E9AF7D",
"k. c #E5A779",
"l. c #EBB17F",
"z. c #82D947",
"x. c #84DA49",
"c. c #8EDF4F",
"v. c #81D153",
"b. c #8AD953",
"n. c #90DD55",
"m. c #95E254",
"M. c #9BE559",
"N. c #A4EA5E",
"B. c #A2E562",
"V. c #ABED63",
"C. c #B2EF6A",
"Z. c #B6F469",
"A. c #BAF56C",
"S. c #BEF86E",
"D. c #B2F267",
"F. c #CAFE76",
"G. c #A3A390",
"H. c #CCB48F",
"J. c #F2BE86",
"K. c #F4C189",
"L. c #F8C88C",
"P. c #FFD494",
"I. c #F2C392",
"U. c #CCC5B3",
"Y. c #FFDDA9",
"T. c #FFE2B3",
"R. c #FFEED4",
"E. c #FFF2DF",
"W. c #FFF6E0",
"Q. c white",
/* pixels */
"W W W W W W W W W W W W W W W W W W W W W W W W W W W W W W W W W W W W W W W W W W W W W W W W W W W W W W W W W W W W W W W W ",
"W W W W W W W W W W W W p u u u u u W W W W W W W W W W W h h W W W W W W W W j b b g W W W W W W W W W W W W W W W W W W W W W ",
"W W W W W W W W W o.! W W p p p p p W W W W W W W W W W W n b n W W W W W W W g h h W W W W W W g n W W W W W W s h n n W W W W ",
"W W W g j W W W W 6.( W W W W W W W W W W W W +.@.@.@.W W h n n W W / } _ _ _ _ _ W W W W W W j s c W W W W W W n n n n g W W W ",
"W W W j c W W W W 6.( W W W W W W W W W W W W F.F.F.F.W W W W W W W o.6.6.6.6.6.6.W W W W W W b b c W W W W W W W W W W W W W W ",
"W W n n W W W _ 6.6.( W W W c c b W W W o.x.F.F.e.6.6.W W W W W W W W _ 6.F.c.6.6.6.( W W W c g W W W W W W W 6.6.6.6.W W W W W ",
"W W j j W W W O.N.6.( W j s c s j W W ..<.8.c.c.o.{ { W W W j n W W W ! { F.D.m.6.6.( W W W h g W W W W { o.o.6.6.6.6.o.o.) W W ",
"W W W W W W W @.F.6.( g j s s g W W _ 4.6.6.6.6./ W W W W g h c W W W W W V.S.V.6.6. .! W W W W W W W ) =.6.6.6.6.6.6.6.6. .W W ",
"W W W W W W W @.F.6.( W W W W W W W 6.6.6.6.6.6.( W W W W n c c W W W W W 6.N.V.6.6.6. .W W W W W W W >.6.6.6.6.6.6.6.6.6. .W W ",
"W W W W W W o.x.F.6.( W W W W W W W 6.6.6.=.W 9 9 9 9 9 q 0 q 9 9 9 9 9 9 9 x $.#.#.*.] W W W W W W W >.6.6.6.6.6.6.6.F.F.c.=.W ",
"W W W W W W 0.A.F.6.>.>.o.W W W W W 6.6.6.=.W                                       : 4.o.W W W W W >.5.6.6.6.6.6.m.A.F.F.S.r.W ",
"W W W W W W q.Z.c.6.6.6.=.W W W W W 6.6.6.=.W                                       : 6.=.W W W W W 6.6.6.6.6.6...,.1.1.C.v.@.W ",
"W W g g W ] w.m.6.6.6.6.=.W W W W W 6.6.6.<._                                       : 6.=.W W W Q _ 6.6.6.4.;.=.! W W W w.@.g W ",
"W W s n W 6.6.6.6.6.6.6.=.W W W W W 6.#.      s.s.s.s.s.s.s.s.s.s.s.s.s.s.s.s.s.s.s.U       W W _ 6.6.6.6.=.W W W W W W W W W W ",
"W W s n W 6.6.6.6.6.6.6.=.W W W W W 6.#.      s.s.s.s.s.s.s.s.s.s.s.s.s.s.s.s.s.s.s.U       W >.6.6.6.6.{ W W W W W W W W W W W ",
"W n b n W / =.6.6.6.6.6.=.W W W W W 6.#.      s.s.s.s.s.s.s.s.s.s.s.s.s.s.s.s.s.s.s.U       W >.6.6.6.] Q W W W W W W W W W W W ",
"W b b s W W o.6.6.6.6.6.>.] W W W W 6.#.      s.s.s.J.L.L.L.L.L.L.L.L.L.L.L.L.g.s.s.U       W >.6.6.6.( W W W W W W W W W W W W ",
"W b h W W W &.6.6.6.6.6.6.6.W W W W 6.#.      s.s.s.L.P.P.P.P.P.P.P.P.P.P.P.P.g.s.s.U       W >.6.6.6.( W W W W W W W W W W W W ",
"W W W W W W o.6.6.6.6.6.6.6.W W W W 6.#.      s.s.s.L.P.P.P.P.P.P.P.P.P.P.P.P.g.s.s.U       6.6.6.6.W W W @.F.F.e.{ W W u r i W ",
"W W W W W W Q  .6.6.6.6.6.6.W W ) >.6.#.      h.h.h.L.P.P.Y.T.T.Y.P.P.P.P.P.P.l.h.h.E       z 2.6.6.W W g ! { F.A.e.<.W g u r u ",
"W W W W W W W ! ] 6.6.6.6.6.W W _ 6.6.#.      P.P.P.P.P.P.R.Q.Q.E.P.P.P.P.P.P.P.P.P.y.      t :.>. .W W W W W 1.C.c.6.o.Q p p p ",
"W W } .._ W W W W =.5.6.6.6.g g _ 6.6.#.      P.P.P.P.P.P.R.Q.Q.E.P.P.P.P.P.P.P.P.P.y.      t | | W W W W W W W b.z.6.6.( W W W ",
"W W q.V.6.W W W W W >.6.6.6.t g _ 6.6.#.      P.P.P.P.P.P.R.Q.Q.E.P.P.P.P.P.P.P.P.P.y.      t t f W W W W W W W >.6.6.6.( W W W ",
"W B.c.6.6.W W W W W W o.&.t t t *     5 s.s.s.P.P.P.1     T P.P.P.P.P.P.      d.P.P.K.s.s.s.      t W W s n W W W o.6.6.( W W W ",
"W B.S.M.6.W W W W W W z l t t t *     5 s.s.s.P.P.P.1     T P.P.P.P.P.P.      d.P.P.K.s.s.s.      $.W W s n W W W o.6.6.z g W W ",
"W B.V.x.6.W W W W W W g p g f f ;     5 s.s.s.P.P.P.1     T P.P.P.P.P.P.      d.P.P.K.s.s.s.      *.W W n n W W p ^ ` ` d f W W ",
"W B.c.6.6.W W W W W W W W W W W -     5 s.s.s.P.P.P.1     T P.P.P.P.P.P.      d.P.P.K.s.s.s.      *.W W s n W W a t t t t f W W ",
"W >.6.6.6.6.] W W W u u u W W W -     5 s.s.s.P.P.P.1     Y P.P.P.P.P.P.      d.P.P.K.s.s.s.      *.W W s n W W a t t t t f W W ",
"W ( =.6.6.6. .W W W p W p W W W -     5 s.s.s.P.P.P.1     T P.P.P.P.P.P.      d.P.P.K.s.s.s.      *.W W g g W W p g g g g g W W ",
"W W ) o.6.6.-. .W W W W W W o.0.3.m m C 6 6 6 j.j.j.t.T t.f.P.P.P.P.P.P.T T T f.j.j.u.6 6 6 m m x ' W W W W W o.o.) W g h g W W ",
"W W W _ 6.6.6.-._ W g g Q _ x.A.Z.x.x.$.      s.s.s.L.P.P.P.P.P.P.P.P.P.P.P.P.g.s.s.U       6.6.=.W W W W Q _ 6.-._ W j b h W W ",
"W W W _ 6.6.6.6.6.W b h _ 6.F.F.F.F.F.%.      s.s.s.L.P.P.P.P.P.P.P.P.P.P.P.P.g.s.s.U       6.6.=.W W W W _ 6.6.( W W c c h W W ",
"W u p W W 6.6.6.6.W b h W W W W y 9 i.C $ $ $ U U U t.y.y.y.y.y.y.y.y.y.y.y.y.R U U V $ $ $ #.d 9 g W W W _ 6.6./ W W c j W W W ",
"W u r p W 6.6.6.6.W b h W W W W -   . $ D D D                                       $ D D D       t W W 9.V.Z.6.( W W j W W W W ",
"W p p p W 6.6.6.6.W j g W W W W -     $ D D D                                       $ D D D       y W 9.V.Z.c. .Q W W W W W W W ",
"W W W W W 6.6.6.6.W W W W W W W -     $ D D D                                       $ D D D       9 ] n.V.m.6.W W W W W W p g W ",
"W W W W W 6.6.6.6.W W W W X           3 I I I D D D D D D D D D D D D D D D D D D D F I I I             m 6.6.W W W W W W u u W ",
"W W W g t 6.` t t t g W W X           3 I I I D D D D D D D D D D D D D D D D D D D F I I I             m 6.6.W W W W 6.( p u W ",
"W W W g f ` l t t f W W W X           3 I I I D D D D D D D D D D D D D D D D D D D F I I I             w  . .W W W W 6.( W p W ",
"W g g W W t y f a W X X X G.U.U.H.d.d.f.p.p.p.+ + + A D D J L L L L L L D D D 2 + @ 4 p.p.p.d.d.d.,     7 W W W W ( _ 6.( W W W ",
"W b h W W t p W W W       U.W.W.T.P.P.K.s.s.s.      Z D D H I I I I I I D D D +     5 s.s.s.P.P.P.1     7 W W W W o.6.6.( W W W ",
"W b h W W W W W W W       U.W.E.T.P.P.K.s.s.s.      Z D D H I I I I I I D D D +     5 s.s.s.P.P.P.1     7 W W W W q.F.6.6. .W W ",
"W b h W W W ..>.>.W       H.T.T.I.j.j.k.s.s.s.      S H H P I I I I I I H H H @     O 6 6 6 B B B w 7 7 a W W W v.A.F.6.6.{ W W ",
"W j g g W q.7.6.6.W       d.P.P.j.s.s.s.s.s.s.      G I I I I I I I I I I I I #                   t W W W W W W B.N.c.6.6.{ W W ",
"W W / { @.F.r.=.=.W       d.P.P.j.s.s.s.s.s.s.      G I I I I I I I I I I I I #                   t W W W W W } n.z.6.6.-._ W W ",
"W W o.z.F.F.1.W W W & & & t.y.y.E U U U U U U       S K K K K K L I I I I I I #     . = & & & & & f W W W W W 6.6.6.6.6.( W W W ",
"W W q.F.F.6.{ W W W W W W X                         Z D D D D D F I I I I I I #     & W W W W b c c W W a t t y :. .W W W W W W ",
"W W q.D.e.6.2.o.W W W W W X                         Z D D D D D F I I I I I I #     & W W W W g h c b g i t t t l g W W W s s W ",
"W W q.V.6.6.6.>._ W W W W X                         Z D D D D D F I I I I I I #     & W W W W W j b c g f y f y f g W W W s n W ",
"W W q.V.6.6.6.6.6.W W W W W W W } 6.6.6. .W W       d.P.P.B     $ D D D D D D +     & W W W W W W W c j W W W W W g W W W s n W ",
"W W o.6.6.6.6.6.6.6./ W W W W >.6.6.6.6. .W W       d.P.P.B     $ D D D D D D +     : 6.=.W g W W W W W W W W W W g W W W s n W ",
"W W o.6.6.6.6.6.6.6.<.] W W W >.6.6.6.6. .W W       d.P.P.B     $ D D D D D D +     v Z.M.>.>.>.o.W W W W W W W v.N.B.>./ g g W ",
"W W ) o.6.6.6.6.6.6.6.} f a f :.6.6.6.*.8 - -       M B B ,     5 a.a.a.a.a.a.<     O C C e 5.6.=.W W W W W W q.A.N.c.6.( W W W ",
"W W W ) =.6.6.6.6.6.6.| z t ' 2.6.6.6.#.                        M P.P.P.P.P.P.1             6.6.>._ W W W Q _ V.V.z.6.=.! W W W ",
"W W W W W 6.6.6.6.6.6.6.&.t 6.6.6.6.6.#.                        M P.P.P.P.P.P.1             6.6.6.6.W W W _ 6.6.6.6.6.W W W W W ",
"W W W W W 6.6.6.6.6.6.6.&.t 6.6.6.6.6.l = o o & & > : : : o     1 y.y.y.y.y.y.,     . & & & 6.6.6.6.t t X.6.6.6.6. .W W W W W W ",
"W W W W W ( =.6.6.6.' z l t z z } 6./ ~ g g g W W 0.Z.Z.e.e                         * W W W 6.6.6.6.t t X.6.6.6.{ Q W W W W W W ",
"W W W W W W ) { { { k y t t t y ~ { W W W W W W W O.1.1.5.e                         & W W W { { [ ` t | :.6.6.6.( g W W W W W W ",
"W W W W W W W W g W y y t t t g W W W W W W W W W W W W >.e                         * W W W W W g t t :.6.6.6.6.( W W W W W W W ",
"W W W W W W W W W W W W W W W W j c W b h W W W W W W W W o.6.6.y >.6.6.6.W W j c W W W W W W a t t t y X.6.6.W W W W W b c n W ",
"W W h b b W h s W W u p W W W W W g b j g W W u u p W W W ! / / t l z z z a g j c W W W p u u p g p t t X.6.6.W W W W b c s g W ",
"W W j n c n b n W W u u p W W W W W h g W W W p p g W W W W W W g y t y t f g j c W W W p r p g W W p g ^ } { W W W W h j g W W ",
"W W W g n n n h W W p u u W W W W W W W W W W W W W W W W W W W W i f y y W g g n W W W g u W W W W g W f f W W W W W W W W W W ",
"W W W W W W W W W W W W W W W W W W W W W W W W W W W W W W W W W g W W W W W W W W W W W W W W W W W W W W W W W W W W W W W W "
};
